<svg width="90" height="62" viewBox="0 0 90 62" fill="none" xmlns="http://www.w3.org/2000/svg">
<g clip-path="url(#clip0_430_648)">
<path d="M57.8825 42.2772H38.1856C33.7023 42.2772 30.0679 38.6428 30.0679 34.1595C30.0679 28.237 34.869 23.436 40.7913 23.436H55.2768C61.1991 23.436 66.0002 28.237 66.0002 34.1594C66.0002 38.6427 62.3658 42.2772 57.8825 42.2772Z" fill="url(#paint0_linear_430_648)"/>
<path d="M57.3382 36.9934C57.9371 36.9934 58.4226 36.5079 58.4226 35.909C58.4226 35.3102 57.9371 34.8247 57.3382 34.8247C56.7394 34.8247 56.2539 35.3102 56.2539 35.909C56.2539 36.5079 56.7394 36.9934 57.3382 36.9934Z" fill="url(#paint1_linear_430_648)"/>
<path d="M45.0267 32.9185C44.4279 32.9185 43.9424 33.4039 43.9424 34.0028C43.9424 34.6017 44.4279 35.0871 45.0267 35.0871C45.6256 35.0871 46.1111 34.6017 46.1111 34.0028C46.1111 33.4038 45.6256 32.9185 45.0267 32.9185Z" fill="url(#paint2_linear_430_648)"/>
<path d="M39.1403 30.7495C38.5414 30.7495 38.0559 31.235 38.0559 31.8339C38.0559 32.4327 38.5414 32.9182 39.1403 32.9182C39.7391 32.9182 40.2246 32.4327 40.2246 31.8339C40.2246 31.235 39.7391 30.7495 39.1403 30.7495Z" fill="url(#paint3_linear_430_648)"/>
<path d="M37.6511 39.5781C38.791 39.5781 39.715 38.654 39.715 37.5141C39.715 36.3743 38.791 35.4502 37.6511 35.4502C36.5112 35.4502 35.5872 36.3743 35.5872 37.5141C35.5872 38.654 36.5112 39.5781 37.6511 39.5781Z" fill="url(#paint4_linear_430_648)"/>
<path d="M64.6802 29.0014C62.8577 25.6843 59.3297 23.436 55.2771 23.436H40.7912C37.8307 23.436 35.1492 24.6359 33.209 26.577C32.4934 27.2926 31.879 28.1079 31.3882 29.0014C31.9037 30.8816 34.0276 32.303 36.2165 31.1731C38.6287 29.9287 41.2442 28.9874 43.6407 28.9874H52.4277C54.8242 28.9874 57.4397 29.9287 59.8518 31.1731C60.1153 31.309 60.3778 31.408 60.6367 31.4737C61.8377 31.7785 62.6954 32.8411 62.7043 34.0801C62.7045 34.1064 62.7046 34.1329 62.7046 34.1592C62.7046 35.3906 62.4301 36.5575 61.9395 37.6031C61.5431 37.2878 61.0342 37.1079 60.4824 37.1349C59.3897 37.1883 58.4933 38.0729 58.4266 39.1649C58.4134 39.3809 58.4318 39.5906 58.4778 39.7899C58.6678 40.6134 58.249 41.4556 57.4586 41.7548C56.5659 42.0927 55.5981 42.2777 54.5871 42.2777H57.8829C60.1245 42.2777 62.1537 41.3685 63.6229 39.8993C65.092 38.4301 66.0004 36.4009 66.0004 34.1593C66.0003 32.2898 65.5218 30.5316 64.6802 29.0014Z" fill="url(#paint5_linear_430_648)"/>
<path d="M43.6397 26.9279H52.4271C54.8236 26.9279 57.4392 27.8687 59.8509 29.1133C63.2511 30.868 66.4956 26.4659 63.7966 23.7537C60.8748 20.8174 56.8296 19 52.36 19H43.7069C39.2373 19 35.1921 20.8174 32.2701 23.7537C29.5712 26.4658 32.8157 30.8679 36.2159 29.1132C38.6276 27.8687 41.2432 26.9279 43.6397 26.9279Z" fill="url(#paint6_linear_430_648)"/>
<path d="M63.7976 23.7532C61.3167 21.2603 58.026 19.5737 54.3533 19.1214C54.3533 19.1214 54.3518 19.1214 54.3497 19.1215C53.6978 19.0411 53.0344 19 52.3612 19H48.4116C46.8757 19.4324 45.6552 20.0294 44.7526 20.5812C42.8041 21.7728 41.867 23.0106 41.8283 23.0625C41.624 23.3359 41.68 23.7229 41.9534 23.9272C42.0646 24.0095 42.1939 24.0499 42.3224 24.0499C42.511 24.0499 42.6963 23.9642 42.8181 23.802C42.8492 23.7601 45.8585 19.8392 52.4655 19.627C53.1757 19.6042 53.8854 19.716 54.5534 19.9577L54.5636 19.9614C49.7616 20.516 47.4143 23.2807 47.2983 23.4208C47.0813 23.683 47.118 24.0706 47.3795 24.2884C47.4947 24.3843 47.6347 24.4311 47.774 24.4311C47.9507 24.4311 48.1264 24.3557 48.2488 24.2097C48.2564 24.2007 49.0259 23.2944 50.557 22.4708C52.0099 21.6893 53.6244 21.2406 55.3765 21.1283C56.4651 21.0586 57.549 21.3648 58.4365 21.9992L58.4498 22.0088C53.4147 22.1956 50.8092 24.9393 50.6829 25.0758C50.4518 25.3255 50.4669 25.7145 50.716 25.9465C50.8347 26.0571 50.9857 26.1118 51.1364 26.1118C51.3016 26.1118 51.4665 26.046 51.5882 25.9162C51.5963 25.9076 52.4148 25.0452 53.9892 24.3077C55.6024 23.5521 57.3821 23.1951 59.2982 23.2381C59.748 23.2483 60.1792 23.4296 60.4968 23.7484C60.4984 23.75 60.5001 23.7517 60.5017 23.7533C62.2772 25.5375 61.4804 28.0528 59.7595 29.0658C59.7902 29.0815 59.8211 29.097 59.8517 29.1129C63.252 30.8675 66.4965 26.4654 63.7976 23.7532Z" fill="url(#paint7_linear_430_648)"/>
<path d="M43.7072 19.0001C43.6968 19.0001 43.6865 19.0001 43.6761 19.0001C41.9959 19.0032 40.3781 19.6548 39.1511 20.8026C37.9068 21.9666 37.3693 22.989 37.3232 23.0789C37.1692 23.382 37.2894 23.7526 37.5916 23.9082C37.6814 23.9544 37.7778 23.9766 37.8733 23.9766C38.0965 23.9766 38.313 23.8539 38.4226 23.6422C38.4283 23.6315 38.9826 22.5799 40.2978 21.4426C41.6187 20.3004 43.1966 19.4826 45.0059 19H43.7072V19.0001Z" fill="url(#paint8_linear_430_648)"/>
<path d="M51.8146 60.9999H32.1177C27.6344 60.9999 24 57.3655 24 52.8822C24 46.9598 28.8011 42.1587 34.7234 42.1587H49.2089C55.1313 42.1587 59.9323 46.9598 59.9323 52.8821C59.9323 57.3655 56.2979 60.9999 51.8146 60.9999Z" fill="url(#paint9_linear_430_648)"/>
<path d="M51.2701 55.716C51.869 55.716 52.3545 55.2306 52.3545 54.6317C52.3545 54.0328 51.869 53.5474 51.2701 53.5474C50.6713 53.5474 50.1858 54.0328 50.1858 54.6317C50.1858 55.2306 50.6713 55.716 51.2701 55.716Z" fill="url(#paint10_linear_430_648)"/>
<path d="M38.9586 51.6411C38.3597 51.6411 37.8743 52.1266 37.8743 52.7255C37.8743 53.3243 38.3597 53.8098 38.9586 53.8098C39.5575 53.8098 40.0429 53.3243 40.0429 52.7255C40.0429 52.1266 39.5575 51.6411 38.9586 51.6411Z" fill="url(#paint11_linear_430_648)"/>
<path d="M33.0724 49.4722C32.4735 49.4722 31.988 49.9576 31.988 50.5565C31.988 51.1554 32.4735 51.6409 33.0724 51.6409C33.6712 51.6409 34.1567 51.1554 34.1567 50.5565C34.1566 49.9576 33.6712 49.4722 33.0724 49.4722Z" fill="url(#paint12_linear_430_648)"/>
<path d="M31.5832 58.3007C32.7231 58.3007 33.6471 57.3767 33.6471 56.2368C33.6471 55.0969 32.7231 54.1729 31.5832 54.1729C30.4433 54.1729 29.5193 55.0969 29.5193 56.2368C29.5193 57.3767 30.4433 58.3007 31.5832 58.3007Z" fill="url(#paint13_linear_430_648)"/>
<path d="M58.6123 47.7241C56.7898 44.4069 53.2618 42.1587 49.2093 42.1587H34.7234C31.7628 42.1587 29.0814 43.3586 27.1411 45.2996C26.4255 46.0153 25.8111 46.8306 25.3203 47.7241C25.8358 49.6042 27.9597 51.0256 30.1487 49.8958C32.5608 48.6514 35.1763 47.7101 37.5728 47.7101H46.3598C48.7563 47.7101 51.3718 48.6514 53.784 49.8958C54.0474 50.0316 54.3099 50.1306 54.5689 50.1964C55.7698 50.5011 56.6275 51.5637 56.6364 52.8027C56.6366 52.8291 56.6367 52.8555 56.6367 52.8819C56.6367 54.1132 56.3622 55.2802 55.8716 56.3257C55.4752 56.0105 54.9663 55.8305 54.4145 55.8575C53.3218 55.911 52.4254 56.7955 52.3587 57.8875C52.3455 58.1036 52.3639 58.3133 52.4099 58.5125C52.5999 59.3361 52.1811 60.1783 51.3907 60.4775C50.498 60.8154 49.5302 61.0003 48.5192 61.0003H51.815C54.0566 61.0003 56.0858 60.0912 57.555 58.622C59.0242 57.1528 59.9325 55.1236 59.9325 52.882C59.9324 51.0125 59.454 49.2542 58.6123 47.7241Z" fill="url(#paint14_linear_430_648)"/>
<path d="M37.5726 45.6504H46.36C48.7565 45.6504 51.3722 46.5912 53.7838 47.8358C57.184 49.5905 60.4285 45.1884 57.7296 42.4763C54.8076 39.5401 50.7625 37.7227 46.2928 37.7227H37.6398C33.1701 37.7227 29.125 39.5401 26.203 42.4763C23.504 45.1884 26.7486 49.5905 30.1488 47.8358C32.5605 46.5913 35.1761 45.6504 37.5726 45.6504Z" fill="url(#paint15_linear_430_648)"/>
<path d="M57.7299 42.4759C55.249 39.9828 51.9584 38.2963 48.2857 37.844C48.2857 37.844 48.2842 37.844 48.2821 37.8441C47.6302 37.7638 46.9668 37.7227 46.2936 37.7227H42.3439C40.808 38.155 39.5876 38.7521 38.685 39.3038C36.7365 40.4955 35.7993 41.7333 35.7606 41.7851C35.5564 42.0585 35.6124 42.4456 35.8858 42.6498C35.997 42.7322 36.1263 42.7726 36.2547 42.7726C36.4433 42.7726 36.6286 42.6869 36.7505 42.5247C36.7816 42.4828 39.7909 38.5618 46.3979 38.3497C47.108 38.3269 47.8178 38.4386 48.4858 38.6803L48.496 38.684C43.694 39.2386 41.3466 42.0034 41.2307 42.1435C41.0137 42.4057 41.0504 42.7932 41.3119 43.011C41.4271 43.107 41.5671 43.1538 41.7063 43.1538C41.8831 43.1538 42.0588 43.0783 42.1812 42.9324C42.1888 42.9233 42.9583 42.017 44.4894 41.1934C45.9423 40.412 47.5568 39.9632 49.3088 39.851C50.3975 39.7812 51.4814 40.0875 52.3688 40.7219L52.3822 40.7314C47.3471 40.9183 44.7416 43.662 44.6153 43.7984C44.3841 44.0482 44.3993 44.4372 44.6483 44.6691C44.7671 44.7797 44.918 44.8344 45.0687 44.8344C45.2339 44.8344 45.3989 44.7687 45.5205 44.6388C45.5287 44.6303 46.3472 43.7679 47.9216 43.0304C49.5347 42.2748 51.3145 41.9177 53.2306 41.9608C53.6804 41.9709 54.1116 42.1523 54.4291 42.4711L54.4341 42.476C56.2096 44.2602 55.4128 46.7755 53.6918 47.7884C53.7226 47.8042 53.7534 47.8197 53.7841 47.8355C57.1843 49.5902 60.4288 45.1881 57.7299 42.4759Z" fill="url(#paint16_linear_430_648)"/>
<path d="M37.6395 37.7227C37.6292 37.7227 37.6189 37.7227 37.6085 37.7227C35.9282 37.7259 34.3105 38.3774 33.0834 39.5253C31.8392 40.6892 31.3017 41.7116 31.2555 41.8016C31.1015 42.1046 31.2218 42.4752 31.524 42.6309C31.6138 42.677 31.7101 42.6992 31.8057 42.6992C32.0288 42.6992 32.2454 42.5765 32.3549 42.3649C32.3607 42.3542 32.9149 41.3025 34.2301 40.1652C35.5511 39.023 37.1289 38.2052 38.9382 37.7227H37.6395V37.7227Z" fill="url(#paint17_linear_430_648)"/>
</g>
<defs>
<linearGradient id="paint0_linear_430_648" x1="31.0343" y1="32.8566" x2="65.1286" y2="32.8566" gradientUnits="userSpaceOnUse">
<stop stop-color="#F8F6F7"/>
<stop offset="0.1788" stop-color="#F8F6F7"/>
<stop offset="1" stop-color="#E7E6F5"/>
</linearGradient>
<linearGradient id="paint1_linear_430_648" x1="26.1012" y1="35.909" x2="65.7269" y2="35.909" gradientUnits="userSpaceOnUse">
<stop stop-color="#F8F6F7"/>
<stop offset="1" stop-color="#D1CEEB"/>
</linearGradient>
<linearGradient id="paint2_linear_430_648" x1="26.1014" y1="34.0027" x2="65.7271" y2="34.0027" gradientUnits="userSpaceOnUse">
<stop stop-color="#F8F6F7"/>
<stop offset="1" stop-color="#D1CEEB"/>
</linearGradient>
<linearGradient id="paint3_linear_430_648" x1="26.1006" y1="31.8339" x2="65.7264" y2="31.8339" gradientUnits="userSpaceOnUse">
<stop stop-color="#F8F6F7"/>
<stop offset="1" stop-color="#D1CEEB"/>
</linearGradient>
<linearGradient id="paint4_linear_430_648" x1="26.1007" y1="37.5141" x2="65.7266" y2="37.5141" gradientUnits="userSpaceOnUse">
<stop stop-color="#F8F6F7"/>
<stop offset="1" stop-color="#D1CEEB"/>
</linearGradient>
<linearGradient id="paint5_linear_430_648" x1="26.1009" y1="32.8568" x2="65.7267" y2="32.8568" gradientUnits="userSpaceOnUse">
<stop stop-color="#F8F6F7"/>
<stop offset="1" stop-color="#D1CEEB"/>
</linearGradient>
<linearGradient id="paint6_linear_430_648" x1="31.947" y1="24.2574" x2="72.2598" y2="24.2574" gradientUnits="userSpaceOnUse">
<stop stop-color="#FE646F"/>
<stop offset="0.593" stop-color="#FB2B3A"/>
<stop offset="1" stop-color="#C41926"/>
</linearGradient>
<linearGradient id="paint7_linear_430_648" x1="22.8475" y1="24.2572" x2="62.1685" y2="24.2572" gradientUnits="userSpaceOnUse">
<stop stop-color="#FE646F"/>
<stop offset="0.593" stop-color="#FB2B3A"/>
<stop offset="1" stop-color="#C41926"/>
</linearGradient>
<linearGradient id="paint8_linear_430_648" x1="22.8472" y1="21.4884" x2="62.1681" y2="21.4884" gradientUnits="userSpaceOnUse">
<stop stop-color="#FE646F"/>
<stop offset="0.593" stop-color="#FB2B3A"/>
<stop offset="1" stop-color="#C41926"/>
</linearGradient>
<linearGradient id="paint9_linear_430_648" x1="24.9664" y1="51.5793" x2="59.0609" y2="51.5793" gradientUnits="userSpaceOnUse">
<stop stop-color="#F8F6F7"/>
<stop offset="0.1788" stop-color="#F8F6F7"/>
<stop offset="1" stop-color="#E7E6F5"/>
</linearGradient>
<linearGradient id="paint10_linear_430_648" x1="20.033" y1="54.6317" x2="59.6588" y2="54.6317" gradientUnits="userSpaceOnUse">
<stop stop-color="#F8F6F7"/>
<stop offset="1" stop-color="#D1CEEB"/>
</linearGradient>
<linearGradient id="paint11_linear_430_648" x1="20.0332" y1="52.7255" x2="59.659" y2="52.7255" gradientUnits="userSpaceOnUse">
<stop stop-color="#F8F6F7"/>
<stop offset="1" stop-color="#D1CEEB"/>
</linearGradient>
<linearGradient id="paint12_linear_430_648" x1="20.0326" y1="50.5565" x2="59.6584" y2="50.5565" gradientUnits="userSpaceOnUse">
<stop stop-color="#F8F6F7"/>
<stop offset="1" stop-color="#D1CEEB"/>
</linearGradient>
<linearGradient id="paint13_linear_430_648" x1="20.0329" y1="56.2369" x2="59.6586" y2="56.2369" gradientUnits="userSpaceOnUse">
<stop stop-color="#F8F6F7"/>
<stop offset="1" stop-color="#D1CEEB"/>
</linearGradient>
<linearGradient id="paint14_linear_430_648" x1="20.0329" y1="51.5795" x2="59.6587" y2="51.5795" gradientUnits="userSpaceOnUse">
<stop stop-color="#F8F6F7"/>
<stop offset="1" stop-color="#D1CEEB"/>
</linearGradient>
<linearGradient id="paint15_linear_430_648" x1="25.8798" y1="42.9801" x2="66.1927" y2="42.9801" gradientUnits="userSpaceOnUse">
<stop stop-color="#FBC56D"/>
<stop offset="0.5841" stop-color="#FE9738"/>
<stop offset="0.9984" stop-color="#FB2B3A"/>
</linearGradient>
<linearGradient id="paint16_linear_430_648" x1="24.3156" y1="42.9798" x2="60.1093" y2="42.9798" gradientUnits="userSpaceOnUse">
<stop stop-color="#FBC56D"/>
<stop offset="0.5841" stop-color="#FE9738"/>
<stop offset="0.9984" stop-color="#FB2B3A"/>
</linearGradient>
<linearGradient id="paint17_linear_430_648" x1="24.3153" y1="40.211" x2="60.109" y2="40.211" gradientUnits="userSpaceOnUse">
<stop stop-color="#FBC56D"/>
<stop offset="0.5841" stop-color="#FE9738"/>
<stop offset="0.9984" stop-color="#FB2B3A"/>
</linearGradient>
<clipPath id="clip0_430_648">
<rect width="42" height="42" fill="white" transform="translate(24 19)"/>
</clipPath>
</defs>
</svg>
