<svg width="90" height="80" viewBox="0 0 90 80" fill="none" xmlns="http://www.w3.org/2000/svg">
<g clip-path="url(#clip0_430_643)">
<path opacity="0.27" d="M67.7019 53.6101C67.7019 58.6447 57.4097 63.2535 44.7849 62.9896C30.4366 62.6896 21.9949 58.2698 21.9949 53.2353C21.9949 48.2007 32.1979 44.9824 44.8206 44.9824C57.4433 44.9824 67.7019 48.5744 67.7019 53.6101Z" fill="black"/>
<path d="M68 53.0744C68 58.1091 57.7078 62.7179 45.083 62.454C30.7347 62.1539 22.293 57.7342 22.293 52.6996C22.293 47.665 32.5023 44.4468 45.1239 44.4468C57.7456 44.4468 68 48.0398 68 53.0744Z" fill="#B22F5D"/>
<path d="M67.9802 52.5114C67.9802 57.5472 58.2331 61.4834 45.6125 61.4834C32.9919 61.4834 22.268 57.5528 22.268 52.5171C22.268 47.4814 32.5014 43.4014 45.1241 43.4014C57.7468 43.4014 67.9802 47.4768 67.9802 52.5114Z" fill="url(#paint0_linear_430_643)"/>
<path d="M67.2051 52.5069C67.2051 57.1656 57.8129 60.804 45.6533 60.804C33.4938 60.804 23.1554 57.1656 23.1554 52.5069C23.1554 47.8483 33.0149 44.0718 45.1776 44.0718C57.3403 44.0718 67.2051 47.8483 67.2051 52.5069Z" fill="#B22F5D"/>
<path d="M66.3511 52.7182C66.3511 57.1175 57.2992 60.5532 45.5734 60.5532C33.8476 60.5532 23.8904 57.1175 23.8904 52.7182C23.8904 48.3188 33.396 44.7529 45.1228 44.7529C56.8497 44.7529 66.3511 48.3188 66.3511 52.7182Z" fill="url(#paint1_linear_430_643)"/>
<path d="M61.1116 53.5374L60.1517 56.0366L54.2893 57.9651L47.8314 58.6434L43.1947 58.3218L40.1815 57.4294L36.5719 55.929L61.0454 50.9307L61.1116 53.5374Z" fill="#914004"/>
<path d="M63.9924 53.5374C63.9924 53.5374 64.1258 53.466 62.9327 53.1795C61.7396 52.8931 63.0661 52.2521 62.7342 50.9657C62.4023 49.6793 59.886 49.2535 58.1647 49.5378C56.4433 49.822 57.8989 53.0369 57.8989 53.0369L60.0855 54.68L63.9924 53.5374Z" fill="#914004"/>
<path d="M60.8134 50.5374C60.8134 50.5374 61.0791 51.3947 60.7472 53.108C60.4153 54.8213 58.297 56.2503 56.5085 56.5368C54.72 56.8233 49.9509 57.6794 47.4345 57.6794C44.9182 57.6794 41.4734 57.3216 39.6187 56.8935C37.764 56.4655 32.7303 55.0364 31.6045 54.8224C30.4786 54.6084 28.3582 53.3231 27.895 52.8973C27.4319 52.4716 27.2985 50.6835 27.6966 50.2555C28.0946 49.8274 31.2894 50.5227 31.2894 50.5227L60.8134 50.5374Z" fill="#FFEDC4"/>
<path d="M56.856 48.5193C56.856 48.5193 59.3062 48.5907 60.4993 49.8782C61.6923 51.1657 60.3669 54.0556 56.7184 55.0555C53.0699 56.0554 44.2995 56.3407 41.2528 55.8051C38.206 55.2695 32.9402 53.7668 31.6484 53.3773C30.3566 52.9877 26.7123 51.0921 27.8728 49.449C29.0333 47.8059 56.856 48.5193 56.856 48.5193Z" fill="url(#paint2_linear_430_643)"/>
<path d="M58.1141 48.3484C58.1141 48.3484 58.2632 48.7764 57.4189 49.5804C56.5745 50.3844 55.6335 50.5441 54.7859 50.6516C53.9384 50.7592 52.6004 52.1509 50.2164 52.365C47.8324 52.579 44.9999 52.9538 40.1342 53.2222C35.2685 53.4905 31.2419 51.074 30.0971 50.86C28.9524 50.646 27.2615 49.628 27.1166 48.8217C26.9717 48.0154 27.2164 47.1084 27.2164 47.1084L58.1141 48.3484Z" fill="#FFEDC4"/>
<path d="M46.9209 51.2687C46.9209 51.2687 44.3373 51.4476 41.9197 51.6979C39.5021 51.9481 35.8284 52.2335 31.2893 50.5191C26.7502 48.8046 26.057 46.4844 28.8391 45.7347C31.6212 44.9851 50.5305 50.6617 50.5305 50.6617C50.5305 50.6617 49.4372 51.2687 46.9209 51.2687Z" fill="#E2952C"/>
<path opacity="0.18" d="M58.7108 41.9312C59.103 42.3835 59.5174 42.8129 59.9522 43.2175C60.6485 43.8596 59.3567 43.931 59.007 45.377C58.6573 46.8231 58.9219 47.4153 58.088 48.2873C56.8278 49.6087 55.0424 49.7967 53.2192 50.5101C51.4821 51.1896 48.8198 51.9154 46.3927 51.7693C42.5352 51.5372 40.2499 52.0196 38.7596 51.7512C37.2694 51.4829 35.7969 50.6188 34.4211 50.1353C32.4341 49.4389 31.5551 48.6372 30.3473 47.7697C27.5117 45.7314 28.5619 44.7701 28.5619 44.1812C28.5619 43.5924 29.4557 44.068 30.8462 43.1621C32.2367 42.2561 58.7108 41.9312 58.7108 41.9312Z" fill="black"/>
<path d="M58.711 41.7534C59.1034 42.2052 59.5178 42.6343 59.9524 43.0387C60.6487 43.6819 61.1948 44.1631 60.8472 45.6092C60.4995 47.0553 59.3065 47.5343 58.4127 48.3417C57.519 49.1491 54.5878 51.1806 52.7499 51.3991C50.912 51.6177 49.2726 51.8804 46.8382 51.9347C44.4037 51.9891 40.6786 51.6131 39.1883 51.3448C37.698 51.0764 35.4967 50.1671 34.121 49.6847C32.1339 48.9883 31.5531 48.464 30.3401 47.5954C27.5045 45.5571 28.5547 44.5968 28.5547 44.0069C28.5547 43.4169 29.4485 43.9004 30.839 42.9877C32.2295 42.075 58.711 41.7534 58.711 41.7534Z" fill="#FFEDC4"/>
<path d="M58.4122 41.522C58.4122 41.522 60.5316 42.3792 60.8582 44.0574C61.1848 45.7356 58.7714 47.4851 57.1488 47.9132C55.5262 48.3412 53.9697 49.9515 51.32 50.4848C48.6703 51.0182 44.9945 50.8053 41.6831 50.6275C38.3718 50.4497 34.7285 49.2686 32.6753 48.1272C30.6221 46.9857 28.3032 46.4852 28.4692 44.4141C28.6351 42.343 30.787 42.3067 30.787 42.3067L58.4122 41.522Z" fill="url(#paint3_linear_430_643)"/>
<path opacity="0.18" d="M59.5874 42.2183C59.5874 42.2183 59.3564 43.9316 56.4084 44.8601C53.4604 45.7887 50.4809 45.9495 49.1229 45.8793C47.765 45.8091 45.5963 46.022 43.5095 45.9857C41.4227 45.9495 37.2007 44.6472 36.3732 44.6472C35.5456 44.6472 32.2657 43.8263 31.1399 43.6836C30.014 43.5409 29.3545 42.755 29.6496 42.5761C29.9447 42.3972 34.2527 43.3257 34.2527 43.3257L42.4004 44.611L52.7326 44.5046L57.7999 43.3971L59.5853 42.2194" fill="black"/>
<path d="M59.9521 40.5486C59.9521 40.5486 60.0519 41.9958 59.0909 42.8258C58.6877 43.1746 56.2438 45.1823 51.8717 45.111C47.4996 45.0396 44.3216 45.6104 40.546 44.897C36.7704 44.1835 33.6576 43.683 31.6705 43.2527C29.6835 42.8224 27.6303 41.5394 27.9611 39.6109C28.2919 37.6825 59.9521 40.5486 59.9521 40.5486Z" fill="#FFEDC4"/>
<path d="M58.1479 37.9502C58.1479 37.9502 59.9333 38.2367 60.0026 40.0927C60.0719 41.9487 56.6902 43.5917 52.9818 43.8782C49.2735 44.1647 45.96 44.2349 41.9859 43.8069C38.0119 43.3789 34.2374 43.0924 31.2568 41.9498C28.2763 40.8072 26.8185 38.9501 29.2036 38.8074C31.5887 38.6647 58.1479 37.9502 58.1479 37.9502Z" fill="#E2802C"/>
<path d="M59.6044 36.3791C59.6044 36.3791 60.0518 36.9679 59.3566 38.5748C58.6613 40.1817 56.0777 40.9857 54.9845 41.3605C53.8912 41.7353 50.5136 42.3241 48.6264 43.0206C46.7391 43.717 44.9002 43.3954 43.3112 43.1281C41.7222 42.8609 38.8897 42.2222 37.4992 42.0569C36.1087 41.8916 32.4812 41.6821 29.8987 39.7004C27.3162 37.7187 27.4149 36.0043 27.5661 35.2546C27.7174 34.505 59.6044 36.3791 59.6044 36.3791Z" fill="#FFEDC4"/>
<path d="M58.6109 33.5942C58.6109 33.5942 60.3963 35.5193 59.3398 38.0219C58.2832 40.5244 54.9025 40.3082 51.7886 41.5221C48.6747 42.736 43.5097 42.2332 40.5291 41.667C37.5486 41.1008 34.7665 41.8097 30.657 39.2392C26.5474 36.6687 27.2133 34.0302 28.7361 34.0302C30.2589 34.0302 58.6109 33.5942 58.6109 33.5942Z" fill="url(#paint4_radial_430_643)"/>
<path d="M60.052 33.273C60.052 33.273 60.3996 34.3443 59.655 35.0939C58.9104 35.8436 55.681 37.182 54.1938 38.0381C52.7067 38.8942 48.0332 40.1806 42.9669 39.431C37.9006 38.6813 35.1679 38.3597 33.7249 38.1989C32.2819 38.0381 30.1982 37.7165 28.7573 36.5388C28.2205 36.1031 27.7747 35.5505 27.449 34.9168C27.1233 34.2831 26.925 33.5826 26.8669 32.8609C26.8175 32.0036 31.5866 32.3785 31.5866 32.3785L60.0478 33.2719" fill="#FFEDC4"/>
<path d="M56.6238 29.3804C56.6238 29.3804 59.9362 29.7382 60.0685 32.5228C60.2008 35.3073 57.0228 35.5938 54.7691 36.665C52.5153 37.7363 46.5563 38.7362 43.3772 38.4508C40.1982 38.1654 36.8858 37.2369 33.5051 37.0919C30.1244 36.947 28.9345 34.8781 27.8748 34.1636C26.8151 33.449 26.352 32.5205 27.8087 31.3779C29.2653 30.2353 56.6238 29.3804 56.6238 29.3804Z" fill="url(#paint5_radial_430_643)"/>
<path d="M59.8862 51.9715C59.8862 51.9715 60.3504 50.7576 58.9588 50.6126C57.5672 50.4677 56.6409 51.1788 55.5151 51.3272C54.3893 51.4755 51.8057 52.1833 50.2167 52.3622C48.6277 52.5411 44.3218 52.9691 44.3218 52.9691C44.3218 52.9691 43.5267 53.6123 45.3814 53.8264C47.2362 54.0404 52.9315 54.3257 53.3296 55.3256C53.7276 56.3255 52.9977 57.1114 52.5346 57.3254C52.0714 57.5395 49.2893 57.8611 48.2286 57.9324C47.1679 58.0037 42.863 57.826 40.6775 57.253C38.4919 56.68 35.4452 55.7537 34.4517 55.611C34.4517 55.611 37.5646 56.6822 39.0213 57.3243C40.4779 57.9664 44.2546 59.3954 47.4336 59.1814C50.6126 58.9674 52.6669 58.5394 54.4523 58.3933C56.2377 58.2472 60.0321 57.3436 62.0696 56.4682C64.0566 55.6121 64.9167 54.6122 64.3874 53.7505C63.8581 52.8887 62.0024 53.7505 61.9362 53.1073C61.87 52.4641 60.9248 52.6238 60.7442 53.8581C60.6455 54.5375 59.5522 56.2497 54.3861 57.1069C54.3861 57.1069 53.9219 56.8215 54.0542 56.0356C54.1866 55.2498 54.7169 55.5363 56.6378 54.8217C58.5587 54.1072 59.4934 53.4663 59.8862 51.9715Z" fill="#914004"/>
<path d="M47.1026 24.1139C45.804 24.1139 44.7512 23.9223 44.7512 23.6859C44.7512 23.4495 45.804 23.2578 47.1026 23.2578C48.4013 23.2578 49.4541 23.4495 49.4541 23.6859C49.4541 23.9223 48.4013 24.1139 47.1026 24.1139Z" fill="#6C3200"/>
<path opacity="0.18" d="M52.7991 36.0847C52.6499 36.1289 48.9248 37.6825 44.3048 37.2001C39.6849 36.7177 37.2998 35.326 36.3063 35.2185C35.3128 35.1109 31.1906 33.6116 30.0973 33.3444C29.004 33.0771 27.5138 32.058 28.3582 31.1475C29.2025 30.2371 52.7991 36.0847 52.7991 36.0847Z" fill="black"/>
<path d="M59.8284 31.5767C59.8284 31.5767 59.7538 32.4419 59.4555 32.6831C59.1573 32.9243 59.4555 33.1122 58.984 33.4599C58.5124 33.8075 55.4069 35.3849 52.7992 36.0848C50.1915 36.7846 47.2109 37.2364 43.4606 36.5128C39.7102 35.7892 38.2441 35.0135 36.2822 34.4507C34.3204 33.8879 31.7117 32.9514 30.2707 32.5766C28.8298 32.2018 28.6324 31.7454 28.458 31.425C28.2837 31.1045 28.2343 30.3798 28.5074 30.219C28.7805 30.0582 32.2084 31.3446 32.2084 31.3446L45.4476 32.1746L59.8284 31.5767Z" fill="#FFEDC4"/>
<path d="M58.8632 28.5596C58.8632 28.5596 59.6078 28.9344 59.8084 30.3805C60.009 31.8265 59.7591 32.4188 58.4179 32.8978C57.0768 33.3768 54.593 34.9361 51.2648 35.5226C47.9366 36.1092 45.0055 35.7366 40.4349 34.7198C35.8643 33.7029 32.388 32.0417 30.798 31.7201C29.2079 31.3985 28.2155 30.5945 28.5631 30.0589C28.9107 29.5232 31.5436 29.5232 31.5436 29.5232L58.8632 28.5596Z" fill="url(#paint6_radial_430_643)"/>
<path d="M57.692 29.7285C57.692 29.7285 60.0183 30.3978 59.8198 31.4747C59.6213 32.5516 56.8392 33.5458 56.3099 33.7598C55.7806 33.9738 55.6472 35.0451 56.1104 35.0451C56.5735 35.0451 57.9651 34.3317 58.0312 34.9737C58.0974 35.6158 55.747 36.0812 54.7692 36.6723C53.7915 37.2634 53.0637 38.4762 53.8587 38.4049C54.6537 38.3335 57.5765 37.9757 57.2457 39.1896C56.9148 40.4035 55.3164 40.0468 53.3294 41.0467C51.3423 42.0466 52.9975 42.4056 54.1905 42.118C56.102 41.665 57.3696 43.0465 54.6537 43.5459C51.9378 44.0453 51.4064 44.3239 51.6732 45.1766C51.9399 46.0293 54.5875 45.8198 55.3826 46.1765C56.1776 46.5332 56.1104 47.8184 54.1905 48.4616C52.2707 49.1048 51.5408 48.1763 50.2826 48.747C49.0245 49.3177 47.3021 49.4615 46.7056 48.4616C46.109 47.4617 48.3618 46.3905 49.2891 45.8911C50.2165 45.3917 51.5408 45.0339 50.6796 44.3907C49.8184 43.7475 48.4941 44.3907 48.5603 43.6048C48.6264 42.8189 50.6796 42.8914 51.21 42.3195C51.7404 41.7477 51.5408 41.0343 49.7523 41.177C47.9637 41.3196 47.6256 40.3152 48.7504 39.7411C49.8752 39.167 51.8716 39.2496 52.3358 38.6789C52.8 38.1082 53.3294 36.8218 52.5343 36.8218C51.7393 36.8218 50.5883 38.0051 50.1661 37.3302C49.8374 36.8059 51.9378 36.3394 52.799 36.0846C53.6602 35.8298 55.0969 35.3123 55.0969 35.3123C55.0969 35.3123 55.8457 34.8967 55.2502 33.7542C54.6547 32.6116 52.9313 33.8255 50.9443 33.0408C48.9573 32.256 50.8813 30.7329 53.1918 30.5178C54.7068 30.3653 56.2103 30.1016 57.692 29.7285Z" fill="#914004"/>
<path opacity="0.18" d="M59.3066 28.8984L59.6553 29.6481C59.6553 29.6481 57.7649 31.2549 52.9485 31.2017C48.1322 31.1485 46.8383 31.469 45.5465 30.9333C44.2547 30.3977 40.1326 30.8201 39.2378 30.8201C38.343 30.8201 33.7766 30.4996 32.3325 29.964C30.8885 29.4284 59.3066 28.8984 59.3066 28.8984Z" fill="black"/>
<path d="M61.0946 24.918C61.0941 25.1278 61.0607 25.3361 60.9958 25.534C60.8908 25.7741 61.1943 26.15 61.1943 26.766C61.1943 27.382 60.6482 28.2381 58.7105 29.2833C56.7729 30.3285 53.8921 30.5414 50.2657 30.675C46.6392 30.8086 47.5351 30.3806 42.5654 30.1938C37.5957 30.0069 38.9148 30.8098 33.6489 30.1666C28.3831 29.5234 28.2833 28.6945 28.1594 28.4793C28.0355 28.2642 27.8811 27.4353 27.9861 27.1726C28.0911 26.9098 30.0477 26.5305 30.0477 26.5305L61.0946 24.918Z" fill="#FFEDC4"/>
<path d="M60.6975 25.8131C60.6975 25.8131 60.5316 25.5991 60.9296 25.2469C61.3277 24.8947 60.9958 23.9616 59.8027 22.998C58.6097 22.0343 53.7114 19.8556 45.298 20.2485C36.8846 20.6415 30.9582 23.7035 29.8985 24.5244C28.8388 25.3454 28.0438 25.9886 28.0764 26.8809C28.0764 26.8809 27.6794 27.5241 28.8052 27.6668C29.9311 27.8095 31.9181 28.1662 33.7728 28.4516C35.6275 28.7369 40.8272 29.0178 43.8403 28.7381C46.8534 28.4584 49.2385 29.2737 53.3785 28.8807C57.5185 28.4878 59.8773 27.9544 60.6975 26.8809C61.1607 26.274 60.6975 25.8131 60.6975 25.8131Z" fill="url(#paint7_linear_430_643)"/>
<path d="M47.8357 22.5785C47.8357 22.5785 52.6541 22.5252 52.2571 23.5297C51.8601 24.5341 50.3195 23.7935 49.724 25.0618C49.1285 26.3301 53.6476 25.8545 55.2902 25.8012C56.9327 25.748 58.0649 26.9178 57.6553 28.0422C57.1081 29.5427 56.2595 29.2992 56.8393 29.9673C56.897 30.0341 56.3761 30.11 56.3761 30.11C56.3761 30.11 56.1031 29.9265 56.4255 29.0195C56.8015 27.9652 54.6401 27.5406 52.7003 27.8577C50.7605 28.1747 44.8016 28.228 43.013 28.3333C41.2245 28.4386 38.6913 28.6503 38.1452 27.963C37.5991 27.2756 39.4863 27.7558 39.2868 26.7513C39.0873 25.7469 36.8534 26.4875 34.1711 26.1183C31.4889 25.7492 32.6305 24.2159 34.1711 23.7935C35.7118 23.3711 32.1841 23.4232 30.4953 24.2691C28.8066 25.115 29.8495 23.635 31.8365 22.9476C33.8235 22.2603 38.3941 22.6317 41.3747 22.8423C44.3552 23.0529 45.1985 22.6317 47.8357 22.5785Z" fill="#914004"/>
<path opacity="0.18" d="M28.756 36.5403C30.1969 37.718 32.2827 38.0396 33.7236 38.2004C35.1645 38.3612 37.8961 38.6828 42.9656 39.4324C48.035 40.1821 52.7022 38.8968 54.1925 38.0396C55.5452 37.2617 58.3325 36.0862 59.3911 35.3151L59.5077 35.3264C59.5077 35.3264 59.6064 35.6118 59.6064 36.3795C59.6064 37.1473 57.2224 37.4689 55.8256 38.1109C54.4288 38.753 51.1069 39.8967 48.6232 40.1821C46.1394 40.4674 42.5129 40.2534 40.3768 39.8786C38.2406 39.5038 34.3663 38.7541 33.3224 38.8595C32.2785 38.9648 27.5608 38.2933 27.5608 35.2539C27.5612 35.2191 27.5658 35.1844 27.5745 35.1509C27.8862 35.6881 28.2866 36.159 28.756 36.5403Z" fill="black"/>
<path opacity="0.18" d="M54.9843 41.3604C56.0776 40.9856 58.6601 40.1816 59.3564 38.5747C59.3564 38.5747 59.7534 38.8068 59.9519 39.5033C59.9519 39.5033 58.3629 41.0037 56.7235 41.4283C55.0841 41.853 53.6936 42.4475 52.5509 42.0715C52.5287 42.0669 52.5078 42.057 52.4896 42.0425C52.4714 42.028 52.4565 42.0093 52.4459 41.9877C53.5256 41.7443 54.4897 41.5302 54.9843 41.3604Z" fill="black"/>
<path d="M54.242 25.7659C54.242 25.8352 54.2612 25.903 54.2971 25.9606C54.3331 26.0181 54.3841 26.0628 54.4437 26.0889C54.5033 26.115 54.5687 26.1214 54.6317 26.1071C54.6947 26.0929 54.7523 26.0588 54.7972 26.0091C54.842 25.9594 54.8722 25.8964 54.8837 25.8282C54.8952 25.76 54.8876 25.6896 54.8618 25.626C54.836 25.5625 54.7933 25.5086 54.739 25.4714C54.6847 25.4342 54.6214 25.4153 54.557 25.4171C54.4726 25.4192 54.3923 25.4569 54.3334 25.5221C54.2745 25.5873 54.2417 25.6748 54.242 25.7659Z" fill="#D72F5D"/>
<path d="M51.8551 26.997C51.677 26.997 51.5326 26.8414 51.5326 26.6494C51.5326 26.4574 51.677 26.3018 51.8551 26.3018C52.0331 26.3018 52.1775 26.4574 52.1775 26.6494C52.1775 26.8414 52.0331 26.997 51.8551 26.997Z" fill="#F6605D"/>
<path d="M50.7867 26.0054C50.7864 26.0744 50.8052 26.1419 50.8407 26.1994C50.8761 26.2569 50.9265 26.3018 50.9856 26.3284C51.0447 26.355 51.1098 26.362 51.1726 26.3487C51.2354 26.3354 51.2931 26.3022 51.3385 26.2535C51.3838 26.2048 51.4147 26.1426 51.4273 26.0749C51.4399 26.0073 51.4335 25.9371 51.4091 25.8733C51.3846 25.8095 51.3432 25.7549 51.2899 25.7166C51.2367 25.6782 51.1741 25.6577 51.1101 25.6577C51.0245 25.6577 50.9424 25.6943 50.8818 25.7595C50.8211 25.8246 50.7869 25.9131 50.7867 26.0054Z" fill="#D72F5D"/>
<path d="M33.8477 25.5781C33.6697 25.5781 33.5253 25.4225 33.5253 25.2305C33.5253 25.0385 33.6697 24.8828 33.8477 24.8828C34.0258 24.8828 34.1702 25.0385 34.1702 25.2305C34.1702 25.4225 34.0258 25.5781 33.8477 25.5781Z" fill="#D72F5D"/>
<path d="M31.6624 23.4175C31.4844 23.4175 31.34 23.2618 31.34 23.0698C31.34 22.8778 31.4844 22.7222 31.6624 22.7222C31.8405 22.7222 31.9849 22.8778 31.9849 23.0698C31.9849 23.2618 31.8405 23.4175 31.6624 23.4175Z" fill="#D72F5D"/>
<path d="M52.2035 32.7807C52.0254 32.7807 51.881 32.6251 51.881 32.4331C51.881 32.2411 52.0254 32.0854 52.2035 32.0854C52.3815 32.0854 52.5259 32.2411 52.5259 32.4331C52.5259 32.6251 52.3815 32.7807 52.2035 32.7807Z" fill="#D72F5D"/>
<path d="M55.5559 52.9746C55.5557 53.0436 55.5745 53.1112 55.6099 53.1687C55.6454 53.2262 55.6958 53.2711 55.7549 53.2976C55.814 53.3242 55.8791 53.3313 55.9419 53.3179C56.0047 53.3046 56.0624 53.2715 56.1078 53.2227C56.1531 53.174 56.184 53.1119 56.1966 53.0442C56.2092 52.9765 56.2028 52.9063 56.1784 52.8425C56.1539 52.7787 56.1124 52.7242 56.0592 52.6858C56.006 52.6474 55.9434 52.627 55.8794 52.627C55.7938 52.627 55.7117 52.6635 55.6511 52.7287C55.5904 52.7939 55.5562 52.8823 55.5559 52.9746Z" fill="#D72F5D"/>
<path d="M47.1361 27.1045C46.958 27.1045 46.8137 26.9488 46.8137 26.7568C46.8137 26.5648 46.958 26.4092 47.1361 26.4092C47.3141 26.4092 47.4585 26.5648 47.4585 26.7568C47.4585 26.9488 47.3141 27.1045 47.1361 27.1045Z" fill="#F6605D"/>
<path d="M50.8811 53.2433C50.8811 53.3123 50.9001 53.3797 50.9356 53.4371C50.9712 53.4944 51.0217 53.5391 51.0808 53.5655C51.1399 53.5919 51.205 53.5988 51.2677 53.5854C51.3305 53.5719 51.3881 53.5387 51.4333 53.4899C51.4786 53.4412 51.5094 53.379 51.5219 53.3113C51.5343 53.2437 51.5279 53.1736 51.5035 53.1098C51.479 53.0461 51.4375 52.9916 51.3843 52.9533C51.3311 52.915 51.2686 52.8945 51.2046 52.8945C51.1188 52.8945 51.0365 52.9313 50.9759 52.9967C50.9152 53.0621 50.8811 53.1508 50.8811 53.2433Z" fill="#F6605D"/>
<path d="M50.4149 47.6719C50.2368 47.6719 50.0925 47.5162 50.0925 47.3242C50.0925 47.1322 50.2368 46.9766 50.4149 46.9766C50.593 46.9766 50.7373 47.1322 50.7373 47.3242C50.7373 47.5162 50.593 47.6719 50.4149 47.6719Z" fill="#F6605D"/>
<path d="M53.8922 40.2002C53.7141 40.2002 53.5698 40.0445 53.5698 39.8525C53.5698 39.6605 53.7141 39.5049 53.8922 39.5049C54.0702 39.5049 54.2146 39.6605 54.2146 39.8525C54.2146 40.0445 54.0702 40.2002 53.8922 40.2002Z" fill="#F6605D"/>
<path d="M38.6165 27.7739C38.4385 27.7739 38.2941 27.6183 38.2941 27.4263C38.2941 27.2343 38.4385 27.0786 38.6165 27.0786C38.7946 27.0786 38.939 27.2343 38.939 27.4263C38.939 27.6183 38.7946 27.7739 38.6165 27.7739Z" fill="#F6605D"/>
<path d="M58.5616 31.8174C58.3835 31.8174 58.2392 31.6617 58.2392 31.4697C58.2392 31.2777 58.3835 31.1221 58.5616 31.1221C58.7397 31.1221 58.884 31.2777 58.884 31.4697C58.884 31.6617 58.7397 31.8174 58.5616 31.8174Z" fill="#F6605D"/>
<path d="M50.3899 22.7388C50.3897 22.8078 50.4085 22.8753 50.4439 22.9328C50.4793 22.9903 50.5298 23.0352 50.5889 23.0618C50.648 23.0884 50.713 23.0954 50.7759 23.0821C50.8387 23.0688 50.8964 23.0356 50.9418 22.9869C50.9871 22.9382 51.018 22.876 51.0306 22.8083C51.0431 22.7407 51.0368 22.6705 51.0123 22.6067C50.9879 22.5429 50.9464 22.4883 50.8932 22.45C50.84 22.4116 50.7774 22.3911 50.7134 22.3911C50.6278 22.3911 50.5457 22.4277 50.485 22.4929C50.4244 22.558 50.3902 22.6465 50.3899 22.7388Z" fill="#F6605D"/>
<path d="M34.7624 24.532C34.7274 24.5699 34.7037 24.6181 34.6941 24.6706C34.6846 24.7231 34.6896 24.7774 34.7087 24.8267C34.7277 24.8761 34.7599 24.9183 34.8011 24.9479C34.8424 24.9776 34.8908 24.9934 34.9404 24.9934C34.99 24.9934 35.0385 24.9776 35.0797 24.9479C35.1209 24.9183 35.1531 24.8761 35.1722 24.8267C35.1912 24.7774 35.1963 24.7231 35.1867 24.6706C35.1771 24.6181 35.1534 24.5699 35.1184 24.532C35.0712 24.4812 35.0071 24.4526 34.9404 24.4526C34.8737 24.4526 34.8096 24.4812 34.7624 24.532Z" fill="#F6605D"/>
<path d="M33.3847 22.9221C33.2461 22.9221 33.1337 22.801 33.1337 22.6515C33.1337 22.502 33.2461 22.3809 33.3847 22.3809C33.5234 22.3809 33.6357 22.502 33.6357 22.6515C33.6357 22.801 33.5234 22.9221 33.3847 22.9221Z" fill="#F6605D"/>
<path d="M49.4961 26.0466C49.4961 26.0863 49.507 26.125 49.5275 26.158C49.5479 26.1909 49.5769 26.2166 49.6109 26.2318C49.6449 26.247 49.6822 26.2509 49.7183 26.2432C49.7544 26.2355 49.7875 26.2164 49.8135 26.1883C49.8395 26.1603 49.8572 26.1246 49.8643 26.0857C49.8715 26.0468 49.8678 26.0065 49.8538 25.9699C49.8397 25.9333 49.8159 25.902 49.7853 25.88C49.7547 25.8579 49.7188 25.8462 49.682 25.8462C49.6327 25.8462 49.5854 25.8673 49.5506 25.9049C49.5157 25.9425 49.4961 25.9935 49.4961 26.0466Z" fill="#F6605D"/>
<path d="M48.2409 27.7873C48.2407 27.8273 48.2515 27.8663 48.2719 27.8996C48.2923 27.9329 48.3214 27.9589 48.3556 27.9744C48.3897 27.9898 48.4273 27.994 48.4636 27.9863C48.5 27.9787 48.5334 27.9596 48.5596 27.9314C48.5859 27.9033 48.6038 27.8673 48.6111 27.8282C48.6184 27.7891 48.6147 27.7485 48.6006 27.7116C48.5865 27.6747 48.5625 27.6432 48.5318 27.621C48.501 27.5988 48.4648 27.5869 48.4278 27.5869C48.3784 27.5869 48.331 27.608 48.296 27.6455C48.261 27.6831 48.2412 27.7341 48.2409 27.7873Z" fill="#F6605D"/>
<path d="M56.7733 32.4333C56.7731 32.4733 56.7839 32.5123 56.8043 32.5456C56.8247 32.5789 56.8539 32.6049 56.888 32.6204C56.9221 32.6358 56.9598 32.64 56.9961 32.6323C57.0324 32.6247 57.0658 32.6055 57.0921 32.5774C57.1183 32.5493 57.1362 32.5133 57.1435 32.4742C57.1508 32.4351 57.1472 32.3945 57.1331 32.3576C57.119 32.3207 57.095 32.2892 57.0642 32.267C57.0335 32.2448 56.9973 32.2329 56.9603 32.2329C56.9109 32.2329 56.8635 32.254 56.8285 32.2915C56.7934 32.3291 56.7736 32.3801 56.7733 32.4333Z" fill="#F6605D"/>
<path d="M55.0971 39.3036C55.0971 39.3435 55.1081 39.3825 55.1286 39.4157C55.1492 39.4489 55.1785 39.4747 55.2127 39.4899C55.2469 39.5052 55.2846 39.5091 55.3209 39.5012C55.3572 39.4934 55.3905 39.474 55.4166 39.4457C55.4427 39.4174 55.4604 39.3814 55.4675 39.3422C55.4746 39.3031 55.4707 39.2625 55.4564 39.2257C55.4421 39.1889 55.418 39.1575 55.3871 39.1355C55.3562 39.1135 55.32 39.1018 55.283 39.1021C55.2585 39.1021 55.2342 39.1073 55.2116 39.1174C55.189 39.1276 55.1684 39.1424 55.1511 39.1612C55.1339 39.1799 55.1202 39.2021 55.1109 39.2266C55.1016 39.251 55.0969 39.2772 55.0971 39.3036Z" fill="#F6605D"/>
<path d="M50.8739 32.1658C50.8737 32.2057 50.8845 32.2448 50.9049 32.2781C50.9253 32.3113 50.9545 32.3374 50.9886 32.3528C51.0227 32.3682 51.0604 32.3724 51.0967 32.3647C51.133 32.3571 51.1664 32.338 51.1927 32.3098C51.2189 32.2817 51.2368 32.2458 51.2441 32.2066C51.2514 32.1675 51.2478 32.1269 51.2337 32.09C51.2196 32.0531 51.1956 32.0216 51.1648 31.9994C51.1341 31.9772 51.0979 31.9653 51.0609 31.9653C51.0115 31.9653 50.9641 31.9864 50.929 32.024C50.894 32.0615 50.8742 32.1125 50.8739 32.1658Z" fill="#F6605D"/>
<path d="M39.6229 27.2919C39.6231 27.3315 39.6341 27.3701 39.6547 27.4029C39.6752 27.4358 39.7043 27.4613 39.7383 27.4763C39.7723 27.4913 39.8097 27.4951 39.8456 27.4872C39.8816 27.4793 39.9147 27.4602 39.9406 27.4321C39.9664 27.404 39.984 27.3683 39.9911 27.3295C39.9982 27.2906 39.9945 27.2504 39.9804 27.2138C39.9663 27.1772 39.9425 27.146 39.9119 27.124C39.8814 27.1021 39.8455 27.0903 39.8087 27.0903C39.7842 27.0903 39.76 27.0956 39.7374 27.1057C39.7147 27.1158 39.6942 27.1307 39.6769 27.1494C39.6597 27.1682 39.646 27.1904 39.6367 27.2148C39.6274 27.2393 39.6227 27.2655 39.6229 27.2919Z" fill="#F6605D"/>
<path d="M55.7924 26.5544C55.7922 26.5944 55.803 26.6335 55.8235 26.6668C55.8439 26.7002 55.8731 26.7262 55.9073 26.7416C55.9415 26.757 55.9792 26.7611 56.0155 26.7533C56.0519 26.7456 56.0853 26.7264 56.1115 26.6981C56.1377 26.6698 56.1555 26.6338 56.1627 26.5946C56.1699 26.5554 56.1661 26.5148 56.1518 26.4779C56.1375 26.441 56.1134 26.4096 56.0825 26.3875C56.0516 26.3654 56.0153 26.3538 55.9783 26.354C55.9291 26.3543 55.8819 26.3755 55.8471 26.413C55.8123 26.4506 55.7927 26.5014 55.7924 26.5544Z" fill="#F6605D"/>
<path d="M51.0724 23.3411C51.0722 23.381 51.083 23.4201 51.1034 23.4534C51.1238 23.4866 51.1529 23.5127 51.1871 23.5281C51.2212 23.5435 51.2588 23.5477 51.2952 23.54C51.3315 23.5324 51.3649 23.5133 51.3912 23.4851C51.4174 23.457 51.4353 23.4211 51.4426 23.3819C51.4499 23.3428 51.4463 23.3022 51.4322 23.2653C51.418 23.2284 51.3941 23.1969 51.3633 23.1747C51.3326 23.1525 51.2964 23.1406 51.2594 23.1406C51.21 23.1406 51.1626 23.1617 51.1275 23.1993C51.0925 23.2368 51.0727 23.2878 51.0724 23.3411Z" fill="#F6605D"/>
<path d="M48.1044 25.0422C48.1042 25.0821 48.115 25.1212 48.1354 25.1545C48.1558 25.1878 48.1849 25.2138 48.2191 25.2293C48.2532 25.2447 48.2908 25.2488 48.3272 25.2412C48.3635 25.2335 48.3969 25.2144 48.4231 25.1863C48.4494 25.1581 48.4673 25.1222 48.4746 25.0831C48.4819 25.044 48.4783 25.0034 48.4641 24.9665C48.45 24.9296 48.4261 24.898 48.3953 24.8758C48.3645 24.8536 48.3284 24.8418 48.2913 24.8418C48.2419 24.8418 48.1945 24.8629 48.1595 24.9004C48.1245 24.938 48.1047 24.989 48.1044 25.0422Z" fill="#F6605D"/>
<path d="M53.3083 53.9792C53.308 54.0192 53.3189 54.0583 53.3393 54.0917C53.3598 54.125 53.389 54.151 53.4232 54.1664C53.4574 54.1818 53.495 54.1859 53.5314 54.1781C53.5678 54.1704 53.6012 54.1512 53.6274 54.1229C53.6536 54.0946 53.6714 54.0586 53.6786 54.0194C53.6858 53.9802 53.682 53.9396 53.6677 53.9027C53.6534 53.8658 53.6293 53.8344 53.5984 53.8123C53.5675 53.7903 53.5312 53.7786 53.4941 53.7788C53.4448 53.7788 53.3976 53.7999 53.3627 53.8375C53.3278 53.8751 53.3083 53.9261 53.3083 53.9792Z" fill="#F6605D"/>
<path d="M32.3283 22.7551C32.3281 22.795 32.3389 22.8341 32.3593 22.8674C32.3797 22.9007 32.4088 22.9267 32.4429 22.9421C32.4771 22.9576 32.5147 22.9617 32.551 22.9541C32.5874 22.9464 32.6208 22.9273 32.647 22.8992C32.6733 22.871 32.6912 22.8351 32.6985 22.796C32.7058 22.7569 32.7021 22.7163 32.688 22.6794C32.6739 22.6425 32.6499 22.6109 32.6192 22.5887C32.5884 22.5665 32.5522 22.5547 32.5152 22.5547C32.4658 22.5547 32.4184 22.5758 32.3834 22.6133C32.3484 22.6509 32.3286 22.7019 32.3283 22.7551Z" fill="#F6605D"/>
<path d="M35.0901 25.7385C35.0901 25.7782 35.101 25.8169 35.1215 25.8499C35.1419 25.8828 35.1709 25.9085 35.2049 25.9237C35.2389 25.9389 35.2762 25.9428 35.3123 25.9351C35.3483 25.9274 35.3815 25.9083 35.4075 25.8802C35.4335 25.8522 35.4512 25.8165 35.4583 25.7776C35.4655 25.7387 35.4618 25.6984 35.4478 25.6618C35.4337 25.6252 35.4099 25.5939 35.3793 25.5719C35.3487 25.5498 35.3128 25.5381 35.276 25.5381C35.2267 25.5381 35.1794 25.5592 35.1446 25.5968C35.1097 25.6344 35.0901 25.6854 35.0901 25.7385Z" fill="#F6605D"/>
<path opacity="0.19" d="M28.6241 56.8041C28.6241 57.06 29.6743 57.2684 30.9755 57.2684C32.2768 57.2684 33.3259 57.06 33.3259 56.8041C33.3259 56.5482 32.2757 56.3398 30.9755 56.3398C29.6753 56.3398 28.6241 56.5482 28.6241 56.8041Z" fill="black"/>
<path opacity="0.19" d="M39.3539 59.4823C39.3539 59.7383 40.4041 59.9466 41.7043 59.9466C43.0045 59.9466 44.0547 59.7383 44.0547 59.4823C44.0547 59.2264 43.0045 59.0181 41.7032 59.0181C40.402 59.0181 39.3539 59.2264 39.3539 59.4823Z" fill="black"/>
<path opacity="0.19" d="M44.4206 59.5907C44.4206 59.8467 45.4708 60.055 46.7721 60.055C48.0733 60.055 49.1235 59.8467 49.1235 59.5907C49.1235 59.3348 48.0733 59.1265 46.7721 59.1265C45.4708 59.1265 44.4206 59.3326 44.4206 59.5907Z" fill="black"/>
<path d="M55.3573 47.8325C55.1461 48.0672 54.9032 48.2661 54.6369 48.4225C54.2168 48.6626 54.2893 49.547 54.4132 50.0826C54.5371 50.6182 55.0843 50.6714 55.7543 50.6488C56.4244 50.6261 58.905 50.3272 59.5299 50.7824C60.1548 51.2376 54.7367 53.0857 54.7367 53.0857L51.2835 52.1979C51.2835 52.1979 53.1466 51.7698 53.4197 50.9126C53.6927 50.0554 53.6686 49.6534 53.4942 49.3058C53.3199 48.9581 52.799 48.6626 52.3022 48.6626C51.8055 48.6626 55.3573 47.8325 55.3573 47.8325Z" fill="#914004"/>
<path d="M31.8027 52.9474C31.8027 52.9474 31.4215 52.6983 31.2892 52.6802C31.1568 52.662 30.9416 53.055 30.9416 53.055C30.9045 52.9304 30.8545 52.8107 30.7924 52.6983C30.6937 52.5194 30.3293 52.9836 30.3293 52.9836C30.3293 52.9836 30.2957 52.6439 30.2463 52.6269C30.1969 52.61 29.7821 53.055 29.7821 53.055L30.1801 53.6087C30.1801 53.6087 31.4551 53.7152 31.5213 53.6619C31.5874 53.6087 31.8027 52.9474 31.8027 52.9474Z" fill="#343057"/>
<path d="M31.6893 52.771C31.6893 52.771 33.8402 53.1107 33.2342 55.3166C32.6282 57.5225 29.5584 57.2077 28.8064 56.2622C28.0544 55.3166 27.6165 53.6724 29.9134 52.8389C29.9796 52.8864 30.0348 52.9498 30.0747 53.024C30.1146 53.0982 30.1381 53.1814 30.1434 53.267C30.2578 53.121 30.4014 53.0049 30.5634 52.9273C30.7034 53.0408 30.8176 53.1872 30.8974 53.3553C30.8974 53.3553 30.8344 53.1073 31.2314 52.9024C31.2314 52.9024 31.5244 53.0156 31.6074 53.2421L31.6893 52.771Z" fill="#605A8F"/>
<path opacity="0.45" d="M29.4188 55.2867C30.0258 56.82 31.8501 56.6739 32.7659 56.1926C31.6946 57.3986 29.4366 57.0499 28.8065 56.2572C28.0713 55.3264 27.6324 53.7206 29.8084 52.8748L29.8158 52.9076L29.9134 52.834C29.9134 52.834 28.7887 53.698 29.4188 55.2867Z" fill="#343057"/>
<path opacity="0.16" d="M32.8287 54.2361C32.8287 54.2361 32.7048 53.7537 32.3571 53.5929C32.2747 53.5496 32.1837 53.5291 32.0921 53.5332C32.0006 53.5373 31.9114 53.5658 31.8326 53.6162C31.7538 53.6666 31.6878 53.7373 31.6406 53.822C31.5934 53.9066 31.5664 54.0026 31.5621 54.1013C31.5127 54.5837 31.6125 55.0389 31.9601 55.3877C32.3078 55.7365 33.1522 55.3311 32.8287 54.2361Z" fill="#E0E6FF"/>
<path opacity="0.19" d="M47.136 24.3462C46.2306 24.3462 45.4966 24.1905 45.4966 23.9985C45.4966 23.8065 46.2306 23.6509 47.136 23.6509C48.0414 23.6509 48.7754 23.8065 48.7754 23.9985C48.7754 24.1905 48.0414 24.3462 47.136 24.3462Z" fill="black"/>
<path opacity="0.19" d="M34.813 23.3019C34.813 23.4944 35.5481 23.6495 36.4524 23.6495C37.3566 23.6495 38.0918 23.4944 38.0918 23.3019C38.0918 23.1094 37.3566 22.9531 36.4524 22.9531C35.5481 22.9531 34.813 23.1094 34.813 23.3019Z" fill="black"/>
<path opacity="0.19" d="M42.6401 28.0407C41.5288 28.0407 40.6279 27.849 40.6279 27.6126C40.6279 27.3762 41.5288 27.1846 42.6401 27.1846C43.7514 27.1846 44.6523 27.3762 44.6523 27.6126C44.6523 27.849 43.7514 28.0407 42.6401 28.0407Z" fill="black"/>
<path opacity="0.19" d="M54.9604 23.1666C53.8491 23.1666 52.9482 22.975 52.9482 22.7386C52.9482 22.5022 53.8491 22.3105 54.9604 22.3105C56.0717 22.3105 56.9727 22.5022 56.9727 22.7386C56.9727 22.975 56.0717 23.1666 54.9604 23.1666Z" fill="black"/>
<path opacity="0.19" d="M40.9767 23.1131C40.1264 23.1131 39.4371 23.0411 39.4371 22.9523C39.4371 22.8635 40.1264 22.7915 40.9767 22.7915C41.827 22.7915 42.5164 22.8635 42.5164 22.9523C42.5164 23.0411 41.827 23.1131 40.9767 23.1131Z" fill="black"/>
<path d="M47.7306 19.6682C47.7306 19.6682 48.0855 19.624 48.1685 19.624C48.2515 19.624 48.2021 20.1143 48.2021 20.1143C48.3575 20.0803 48.5152 20.0594 48.6737 20.0521C48.7398 20.0702 48.765 20.5877 48.765 20.5877C48.9403 20.5403 49.097 20.434 49.2124 20.2842C49.2143 20.5112 49.2031 20.7381 49.1788 20.9636C49.1463 21.1335 48.5161 21.1958 48.4752 21.1607C48.4342 21.1256 47.4249 20.2548 47.4249 20.2321C47.4249 20.2095 47.7306 19.6682 47.7306 19.6682Z" fill="#343057"/>
<path d="M49.2143 20.2837C49.2143 20.2837 49.189 20.6857 49.5619 21.3549C49.9347 22.0241 49.8601 23.1758 48.9906 23.819C48.121 24.4622 46.3324 24.1666 45.4135 23.0693C44.4945 21.972 44.8884 20.4173 45.6865 19.8817C46.4847 19.346 47.4257 19.748 47.7733 19.5068C47.8209 19.6571 47.8515 19.813 47.8647 19.9711C47.8647 20.141 48.1294 19.9983 48.3363 19.9983C48.3884 20.1669 48.427 20.3401 48.4518 20.5158C48.4602 20.6766 48.8078 20.4445 48.9076 20.4263C49.0074 20.4082 48.9244 20.5611 49.0315 20.7751C49.1386 20.9891 49.2143 20.2837 49.2143 20.2837Z" fill="#605A8F"/>
<path opacity="0.45" d="M45.6867 19.8823C46.2171 19.5256 46.8125 19.5845 47.2547 19.5924L47.2851 19.615C45.149 19.8823 45.3947 23.1141 47.45 23.6316C48.7597 23.9611 49.3551 23.3825 49.6208 23.0077C49.4853 23.3365 49.267 23.6178 48.9907 23.8196C48.1211 24.4628 46.3326 24.1672 45.4136 23.07C44.4947 21.9727 44.8948 20.4179 45.6867 19.8823Z" fill="#343057"/>
<path d="M42.5657 18.9363C42.5657 18.9363 42.1855 18.6861 42.0532 18.668C41.9208 18.6498 41.7045 19.0428 41.7045 19.0428C41.6674 18.9184 41.6177 18.7988 41.5564 18.6861C41.4514 18.5072 41.0922 18.9714 41.0922 18.9714C41.0922 18.9714 41.0596 18.6317 41.0092 18.6147C40.9588 18.5977 40.5461 19.0428 40.5461 19.0428L40.9431 19.5965C40.9431 19.5965 42.218 19.7098 42.2842 19.6497C42.3504 19.5897 42.5657 18.9363 42.5657 18.9363Z" fill="#343057"/>
<path d="M42.452 18.7593C42.452 18.7593 44.6039 19.099 43.9979 21.3038C43.3919 23.5085 40.3221 23.196 39.5701 22.2493C38.8182 21.3026 38.3834 19.6595 40.6771 18.8272C40.7427 18.8749 40.7972 18.9382 40.8366 19.0122C40.8759 19.0862 40.8989 19.169 40.9039 19.2541C41.019 19.1089 41.1625 18.9929 41.324 18.9144C41.464 19.028 41.5782 19.1743 41.658 19.3425C41.658 19.3425 41.596 19.0945 41.993 18.8895C41.993 18.8895 42.285 19.0027 42.369 19.2292L42.452 18.7593Z" fill="#605A8F"/>
<path opacity="0.45" d="M40.1817 21.2739C40.7887 22.8072 42.614 22.6611 43.5298 22.1889C42.4575 23.3949 40.2006 23.0461 39.5704 22.2535C38.83 21.3226 38.3952 19.7169 40.5713 18.8722L40.5786 18.905L40.6774 18.8325C40.6774 18.8325 39.5526 19.6852 40.1817 21.2739Z" fill="#343057"/>
<path d="M54.6129 42.7973C54.4348 42.7973 54.2905 42.6417 54.2905 42.4497C54.2905 42.2577 54.4348 42.1021 54.6129 42.1021C54.791 42.1021 54.9353 42.2577 54.9353 42.4497C54.9353 42.6417 54.791 42.7973 54.6129 42.7973Z" fill="#D72F5D"/>
<path d="M52.129 43.226C51.9509 43.226 51.8066 43.0704 51.8066 42.8784C51.8066 42.6864 51.9509 42.5308 52.129 42.5308C52.3071 42.5308 52.4514 42.6864 52.4514 42.8784C52.4514 43.0704 52.3071 43.226 52.129 43.226Z" fill="#F6605D"/>
<path d="M58.1888 52.1709C58.0107 52.1709 57.8664 52.0152 57.8664 51.8232C57.8664 51.6312 58.0107 51.4756 58.1888 51.4756C58.3669 51.4756 58.5112 51.6312 58.5112 51.8232C58.5112 52.0152 58.3669 52.1709 58.1888 52.1709Z" fill="#F6605D"/>
<path d="M51.2594 42.7175C51.2592 42.7575 51.27 42.7966 51.2905 42.8299C51.311 42.8633 51.3401 42.8893 51.3743 42.9047C51.4085 42.9201 51.4462 42.9241 51.4826 42.9164C51.5189 42.9087 51.5523 42.8894 51.5785 42.8612C51.6048 42.8329 51.6226 42.7969 51.6298 42.7577C51.6369 42.7185 51.6331 42.6779 51.6189 42.641C51.6046 42.6041 51.5805 42.5727 51.5496 42.5506C51.5187 42.5285 51.4824 42.5169 51.4453 42.5171C51.4209 42.5171 51.3967 42.5223 51.3742 42.5324C51.3516 42.5424 51.3311 42.5572 51.3139 42.5758C51.2966 42.5944 51.2829 42.6165 51.2736 42.6408C51.2642 42.6651 51.2594 42.6912 51.2594 42.7175Z" fill="#F6605D"/>
<path d="M54.3017 52.801C54.3015 52.841 54.3123 52.8801 54.3327 52.9134C54.3532 52.9468 54.3824 52.9728 54.4166 52.9882C54.4508 53.0036 54.4885 53.0077 54.5248 52.9999C54.5612 52.9922 54.5946 52.9729 54.6208 52.9447C54.647 52.9164 54.6648 52.8804 54.672 52.8412C54.6792 52.802 54.6754 52.7614 54.6611 52.7245C54.6468 52.6876 54.6227 52.6562 54.5918 52.6341C54.5609 52.612 54.5246 52.6004 54.4875 52.6006C54.4383 52.6009 54.3912 52.6221 54.3564 52.6596C54.3216 52.6972 54.3019 52.748 54.3017 52.801Z" fill="#F6605D"/>
<path d="M48.3405 47.123C48.3405 47.1629 48.3515 47.2019 48.3721 47.2351C48.3926 47.2682 48.4219 47.2941 48.4561 47.3093C48.4903 47.3245 48.528 47.3284 48.5643 47.3206C48.6006 47.3127 48.6339 47.2934 48.66 47.2651C48.6861 47.2368 48.7038 47.2008 48.7109 47.1616C48.718 47.1224 48.7141 47.0818 48.6998 47.045C48.6855 47.0082 48.6614 46.9768 48.6305 46.9548C48.5996 46.9328 48.5634 46.9212 48.5264 46.9214C48.5019 46.9214 48.4776 46.9266 48.455 46.9368C48.4324 46.9469 48.4118 46.9618 48.3945 46.9805C48.3773 46.9992 48.3636 47.0215 48.3543 47.0459C48.345 47.0704 48.3403 47.0965 48.3405 47.123Z" fill="#F6605D"/>
<path d="M53.2965 46.5746C53.2965 46.6145 53.3075 46.6535 53.328 46.6866C53.3486 46.7197 53.3778 46.7456 53.4119 46.7608C53.4461 46.7761 53.4837 46.7801 53.5199 46.7723C53.5562 46.7645 53.5895 46.7453 53.6157 46.7171C53.6418 46.689 53.6596 46.653 53.6668 46.6139C53.674 46.5748 53.6703 46.5343 53.6562 46.4975C53.642 46.4606 53.6181 46.4292 53.5873 46.407C53.5566 46.3849 53.5204 46.373 53.4835 46.373C53.4339 46.373 53.3863 46.3943 53.3513 46.4321C53.3162 46.4699 53.2965 46.5212 53.2965 46.5746Z" fill="#F6605D"/>
<path opacity="0.16" d="M48.3775 22.4713C48.3775 22.8258 48.6117 23.1134 48.9026 23.1134C49.1935 23.1134 49.4277 22.8258 49.4277 22.4713C49.4277 22.1169 49.1935 21.8281 48.9026 21.8281C48.6117 21.8281 48.3775 22.1158 48.3775 22.4713Z" fill="#E0E6FF"/>
<path opacity="0.16" d="M48.7669 21.3736C48.7666 21.4127 48.7772 21.451 48.7972 21.4835C48.8172 21.5161 48.8457 21.5415 48.8792 21.5566C48.9126 21.5716 48.9494 21.5756 48.985 21.5681C49.0205 21.5605 49.0532 21.5417 49.0788 21.5141C49.1044 21.4865 49.1218 21.4513 49.1289 21.4129C49.1359 21.3746 49.1322 21.3349 49.1182 21.2988C49.1043 21.2628 49.0807 21.232 49.0505 21.2105C49.0202 21.1889 48.9848 21.1775 48.9485 21.1777C48.9247 21.1777 48.9011 21.1828 48.879 21.1926C48.857 21.2025 48.8369 21.2169 48.8201 21.2351C48.8032 21.2533 48.7898 21.2749 48.7807 21.2987C48.7716 21.3224 48.7669 21.3479 48.7669 21.3736Z" fill="#E0E6FF"/>
<path opacity="0.16" d="M43.8447 20.3548C43.8447 20.3548 43.7397 19.7388 43.4246 19.4806C43.1096 19.2224 42.6139 19.1771 42.6212 19.8011C42.6286 20.425 42.804 20.7659 42.6884 21.3015C42.5729 21.8371 43.1684 21.9888 43.4331 21.7295C43.6977 21.4702 43.9498 21.0693 43.8447 20.3548Z" fill="#E0E6FF"/>
<path d="M37.9131 19.364C37.9131 19.364 37.5655 19.0967 37.4657 19.1137C37.3028 19.168 37.1624 19.2817 37.0687 19.4353C37.0687 19.4353 36.7872 19.0254 36.6875 19.0254C36.5877 19.0254 36.3566 19.4002 36.3566 19.4002L36.3062 19.1137C36.1698 19.2017 36.0693 19.3421 36.0248 19.5067C35.9586 19.775 36.3734 20.1317 36.3734 20.1317C36.3734 20.1317 37.284 20.5247 37.3502 20.4896C37.4163 20.4545 37.9131 19.364 37.9131 19.364Z" fill="#343057"/>
<path d="M37.8455 19.2075C37.8455 19.2075 39.9964 19.5472 39.3904 21.752C38.7845 23.9568 35.7146 23.6431 34.9627 22.6975C34.2107 21.752 33.7728 20.1078 36.0728 19.2743C36.1379 19.3217 36.1922 19.3845 36.2315 19.4579C36.2708 19.5313 36.2941 19.6133 36.2996 19.6978C36.4141 19.5519 36.5577 19.4358 36.7197 19.3581C36.8593 19.4721 36.9734 19.6184 37.0537 19.7862C37.0537 19.7862 36.9907 19.5382 37.3876 19.3332C37.3876 19.3332 37.6807 19.4465 37.7636 19.6729L37.8455 19.2075Z" fill="#605A8F"/>
<path opacity="0.45" d="M34.8884 19.9629C34.67 20.768 34.9703 22.1518 36.3314 22.7112C37.4447 23.1642 38.6062 22.7214 38.999 22.5402C37.9624 23.856 35.6089 23.5095 34.963 22.6976C34.3843 21.9706 33.9936 20.8303 34.8884 19.9629Z" fill="#343057"/>
<path opacity="0.16" d="M38.8489 19.9749C38.7146 19.8762 38.5507 19.8358 38.3899 19.8616C38.1536 19.9171 37.9383 20.2081 38.1704 20.5999C38.4025 20.9918 38.7691 21.678 39.0768 21.4277C39.3845 21.1775 39.3604 20.9102 39.2207 20.506C39.1369 20.3001 39.0096 20.1182 38.8489 19.9749Z" fill="#E0E6FF"/>
<path d="M39.0135 21.9895C39.0135 21.9895 40.28 21.8559 40.8272 22.9532C41.3744 24.0504 41.1003 25.3901 40.1067 25.9257C39.1132 26.4613 37.7962 26.5417 37.0023 25.4727C36.2083 24.4038 35.9342 22.2307 39.0135 21.9895Z" fill="#605A8F"/>
<path d="M39.3035 21.9976C39.3035 21.9976 38.9979 22.2241 38.9558 22.4347C38.9558 22.4347 38.6996 22.2649 38.5085 22.3011C38.3173 22.3373 38.2196 22.6578 38.2196 22.6578C38.2196 22.6578 37.8962 22.3181 37.7471 22.4313C37.5979 22.5446 37.4908 22.7439 37.515 22.7348C37.5391 22.7258 37.4824 22.4132 37.3585 22.4494C37.3585 22.4494 37.4635 21.9852 37.6557 22.0123C37.7776 22.0325 37.8922 22.0877 37.9876 22.172C38.0127 22.0383 38.078 21.9173 38.1734 21.8278C38.3142 21.7145 38.6124 22.0327 38.6124 22.0327C38.6744 21.9106 38.7658 21.8089 38.8771 21.7383C39.0388 21.6488 39.3035 21.9976 39.3035 21.9976Z" fill="#343057"/>
<path opacity="0.45" d="M36.7263 23.0425C36.7032 23.2089 36.5541 24.5599 37.8585 25.3276C39.2574 26.1498 40.6941 24.9177 40.8632 24.6052C40.8839 24.5667 40.9154 24.5363 40.9531 24.5183C40.9909 24.5004 41.033 24.4959 41.0732 24.5055C40.942 25.1136 40.6111 25.6526 40.1039 25.9255C39.1104 26.4612 37.7934 26.5416 36.9994 25.4726C36.5321 24.8373 36.2443 23.8193 36.7263 23.0425Z" fill="#343057"/>
<path d="M43.2809 23.2564C43.2809 23.2564 44.9098 23.1669 45.4528 24.6073C45.9958 26.0477 45.4108 27.761 43.0929 27.7837C40.7751 27.8063 40.3791 26.2516 40.4191 25.2834C40.459 24.3152 41.275 23.1669 43.2809 23.2564Z" fill="#605A8F"/>
<path d="M43.6755 24.1142C43.6755 24.1142 43.6912 23.6318 43.4759 23.7744C43.3661 23.8413 43.2659 23.9253 43.1787 24.0236C43.1787 24.0236 43.0958 23.8095 42.9687 23.7744C42.8416 23.7393 42.7943 24.2025 42.7943 24.2025C42.7943 24.2025 42.4635 24.0066 42.3469 24.113C42.2304 24.2195 42.4961 24.4527 42.4961 24.4527C42.4961 24.4527 42.3144 24.5422 42.4635 24.6668C42.6126 24.7913 42.4961 25.0948 42.8279 25.0948C42.8694 25.0985 42.9111 25.092 42.9499 25.076C42.9888 25.0599 43.0238 25.0346 43.0523 25.002C43.0808 24.9694 43.1022 24.9302 43.1148 24.8875C43.1274 24.8448 43.131 24.7995 43.1252 24.7551C43.1252 24.7551 43.3741 25.0586 43.54 24.9329C43.7059 24.8072 43.6555 24.558 43.6555 24.558C43.7191 24.5565 43.7812 24.5377 43.8363 24.5035C43.8913 24.4693 43.9375 24.4207 43.9706 24.3621C44.0725 24.1662 43.6755 24.1142 43.6755 24.1142Z" fill="#343057"/>
<path opacity="0.45" d="M40.4189 25.283C40.4256 25.139 40.4485 24.9964 40.4872 24.8584C40.462 25.5673 40.7498 26.8967 42.5163 27.3089C44.2365 27.7165 45.2689 26.7291 45.438 26.5513C45.1082 27.2534 44.3605 27.7709 43.0928 27.7834C40.7739 27.8049 40.379 26.2512 40.4189 25.283Z" fill="#343057"/>
<path opacity="0.16" d="M45.2478 25.0327C45.1804 24.8222 45.0415 24.647 44.8592 24.5424C44.5777 24.4076 44.1555 24.5333 44.124 25.1222C44.0925 25.711 43.9917 26.7075 44.48 26.7019C44.9684 26.6962 45.1301 26.3995 45.2667 25.8718C45.3211 25.5943 45.3147 25.307 45.2478 25.0327Z" fill="#E0E6FF"/>
<path opacity="0.19" d="M36.9028 48.2345C35.8994 48.2345 35.0859 48.0611 35.0859 47.8472C35.0859 47.6333 35.8994 47.46 36.9028 47.46C37.9063 47.46 38.7197 47.6333 38.7197 47.8472C38.7197 48.0611 37.9063 48.2345 36.9028 48.2345Z" fill="black"/>
<path d="M36.8522 43.8644C36.8522 43.8644 38.3226 43.7828 38.8141 45.0851C39.3056 46.3873 38.7763 47.9319 36.6831 47.9523C34.59 47.9727 34.2309 46.5697 34.2676 45.6955C34.3044 44.8212 35.0416 43.7828 36.8522 43.8644Z" fill="#605A8F"/>
<path d="M37.2095 44.6394C37.2095 44.6394 37.2242 44.2034 37.0299 44.3325C36.9304 44.3933 36.8398 44.4696 36.761 44.559C36.761 44.559 36.6854 44.3653 36.5668 44.3325C36.4481 44.2997 36.4166 44.7198 36.4166 44.7198C36.4166 44.7198 36.1173 44.542 36.0133 44.6394C35.9093 44.7368 36.1477 44.9451 36.1477 44.9451C36.1477 44.9451 35.9828 45.0255 36.1173 45.1388C36.2517 45.252 36.1477 45.526 36.447 45.526C36.4844 45.5291 36.522 45.5231 36.557 45.5085C36.592 45.4939 36.6235 45.4711 36.6493 45.4417C36.675 45.4123 36.6944 45.377 36.7059 45.3385C36.7174 45.3 36.7208 45.2592 36.7159 45.2192C36.7159 45.2192 36.9396 45.4932 37.0898 45.3811C37.1339 45.3398 37.167 45.2865 37.1855 45.2267C37.204 45.167 37.2072 45.1029 37.1948 45.0414C37.2521 45.0398 37.3081 45.0227 37.3577 44.9916C37.4072 44.9605 37.4487 44.9165 37.4784 44.8636C37.5687 44.6869 37.2095 44.6394 37.2095 44.6394Z" fill="#343057"/>
<path opacity="0.45" d="M34.2685 45.696C34.2741 45.5655 34.2946 45.4362 34.3294 45.311C34.3074 45.952 34.5668 47.1478 36.1621 47.526C37.7153 47.8929 38.6479 47.0017 38.8013 46.8409C38.503 47.475 37.8267 47.9416 36.683 47.9529C34.5888 47.9733 34.2307 46.5703 34.2685 45.696Z" fill="#343057"/>
<path opacity="0.16" d="M38.6296 45.4691C38.5692 45.2784 38.4438 45.1197 38.2788 45.0252C38.0247 44.9051 37.6435 45.0172 37.613 45.5495C37.5825 46.0817 37.4933 46.9853 37.9344 46.9763C38.3754 46.9672 38.5214 46.7034 38.6453 46.2266C38.6946 45.9762 38.6892 45.7169 38.6296 45.4691Z" fill="#E0E6FF"/>
<path opacity="0.16" d="M39.7962 23.6838C39.9254 24.0099 40.2457 24.1752 40.5103 24.0529C40.775 23.9306 40.8842 23.5672 40.7551 23.241C40.6259 22.9149 40.3056 22.7484 40.0409 22.8707C39.7762 22.993 39.667 23.3565 39.7962 23.6838Z" fill="#E0E6FF"/>
<path opacity="0.16" d="M39.604 22.6162C39.6182 22.652 39.642 22.6826 39.6723 22.7039C39.7026 22.7252 39.7381 22.7363 39.7742 22.7359C39.8104 22.7354 39.8457 22.7234 39.8755 22.7013C39.9053 22.6792 39.9284 22.6481 39.9418 22.6119C39.9552 22.5756 39.9584 22.5359 39.9508 22.4978C39.9433 22.4596 39.9254 22.4247 39.8995 22.3976C39.8735 22.3704 39.8407 22.3521 39.8051 22.345C39.7695 22.338 39.7328 22.3425 39.6996 22.358C39.6552 22.3786 39.6203 22.4174 39.6024 22.4658C39.5845 22.5142 39.5851 22.5682 39.604 22.6162Z" fill="#E0E6FF"/>
<path d="M43.7336 56.2156C43.7336 56.2156 43.3356 55.5192 43.1371 55.5192C43.0069 55.5235 42.8794 55.5599 42.7643 55.6257C42.7643 55.6257 42.6162 55.2554 42.4166 55.2554C42.2171 55.2554 41.8453 55.4966 41.8453 55.4966L41.9199 56.5157L43.7336 56.2156Z" fill="#343057"/>
<path d="M43.5982 55.7305C43.5982 55.7305 45.601 56.6432 44.4972 58.6136C43.3934 60.5839 40.4969 59.4413 39.9917 58.3214C39.4865 57.2015 39.4466 55.4904 41.8653 55.3115C41.9181 55.3756 41.9566 55.4519 41.9777 55.5346C41.9988 55.6173 42.0021 55.704 41.9871 55.7883C42.1314 55.6794 42.2965 55.6067 42.4702 55.5754C42.579 55.7233 42.6551 55.896 42.6929 56.0804C42.6929 56.0804 42.6929 55.8234 43.1224 55.7407C43.1224 55.7407 43.3787 55.9287 43.407 56.1699L43.5982 55.7305Z" fill="#605A8F"/>
<path opacity="0.16" d="M44.0958 57.3866C44.0958 57.3866 43.9971 57.0039 43.7209 56.8759C43.6555 56.842 43.5833 56.8261 43.5108 56.8296C43.4382 56.833 43.3676 56.8558 43.3053 56.8958C43.2429 56.9358 43.1906 56.9919 43.1532 57.0589C43.1158 57.126 43.0943 57.202 43.0908 57.2802C43.0628 57.4649 43.0768 57.6541 43.1317 57.8317C43.1866 58.0092 43.2807 58.1697 43.4058 58.2993C43.681 58.579 44.3521 58.2597 44.0958 57.3866Z" fill="#E0E6FF"/>
<path d="M46.0501 55.5735C46.0501 55.5735 46.3022 55.2995 46.3652 55.244C46.4282 55.1885 46.675 55.6052 46.675 55.6052C46.777 55.4738 46.8883 55.3511 47.0079 55.2383C47.0699 55.2077 47.3891 55.595 47.3891 55.595C47.499 55.4405 47.5598 55.2518 47.5624 55.0571C47.6953 55.2328 47.8177 55.4174 47.929 55.6097C48.0014 55.7649 47.5467 56.2371 47.4931 56.2371C47.4396 56.2371 46.1499 56.2371 46.1341 56.2201C46.1184 56.2031 46.0501 55.5735 46.0501 55.5735Z" fill="#343057"/>
<path d="M47.5625 55.0571C47.5625 55.0571 47.7725 55.3878 48.4541 55.6596C49.1357 55.9313 49.7417 56.8814 49.435 57.9696C49.1284 59.0579 47.5604 60.0306 46.2066 59.7916C44.8529 59.5527 44.2648 58.0716 44.5746 57.1181C44.8844 56.1646 45.8559 55.843 45.9871 55.4195C46.1112 55.5051 46.2254 55.6062 46.3274 55.7207C46.4261 55.8532 46.5501 55.5633 46.7118 55.424C46.8503 55.5202 46.9806 55.6294 47.1014 55.7502C47.2065 55.8702 47.3388 55.4546 47.406 55.3742C47.4732 55.2938 47.4963 55.4671 47.7043 55.5622C47.9122 55.6573 47.5625 55.0571 47.5625 55.0571Z" fill="#605A8F"/>
<path opacity="0.16" d="M48.868 56.3789C48.868 56.3789 48.5938 55.9916 48.2242 55.9814C48.1351 55.9746 48.0458 55.9918 47.9644 56.0313C47.883 56.0708 47.8119 56.1315 47.7576 56.2079C47.7033 56.2844 47.6674 56.3741 47.6531 56.4692C47.6389 56.5642 47.6467 56.6616 47.676 56.7526C47.7925 57.2056 48.0362 57.5826 48.4678 57.7616C48.8995 57.9405 49.5296 57.2475 48.868 56.3789Z" fill="#E0E6FF"/>
<path opacity="0.45" d="M45.7949 56.2959C45.4221 56.938 45.1984 58.144 46.215 58.9196C47.1014 59.5991 48.6305 58.9129 49.0076 58.7249C48.3774 59.4575 47.2306 59.9705 46.2045 59.7916C44.8518 59.5526 44.2626 58.0715 44.5725 57.118C44.8823 56.1645 45.8537 55.8429 45.985 55.4194C45.9871 55.4206 46.1678 55.6527 45.7949 56.2959Z" fill="#343057"/>
<path opacity="0.45" d="M44.0623 59.1616C42.7726 60.3257 40.44 59.3156 39.9916 58.3214C39.5158 57.2694 39.4528 55.6988 41.4493 55.3613C40.9536 55.4746 40.2048 55.8652 40.3056 57.1528C40.4526 59.0235 42.6665 59.7267 44.0623 59.1616Z" fill="#343057"/>
<path d="M55.37 18.8917C55.37 18.8917 57.4012 18.8272 57.7593 20.6945C58.1174 22.5618 56.2071 23.6614 53.9963 22.4973C51.7856 21.3332 52.504 18.3765 55.37 18.8917Z" fill="#605A8F"/>
<path d="M55.5203 19.0742C55.5203 19.0742 55.4006 18.508 55.5392 18.2816C55.6778 18.0551 55.4499 17.9928 55.3502 18.003C55.2504 18.0132 55.201 18.6258 55.3008 18.8512C55.4006 19.0765 55.4205 19.235 55.5203 19.0742Z" fill="#343057"/>
<path opacity="0.45" d="M53.4616 19.1758C53.136 19.7069 53.0247 21.2277 54.4142 22.24C55.7542 23.2161 57.2624 22.3623 57.4167 22.2695C56.7866 23.0452 55.457 23.2637 53.9962 22.4959C52.4166 21.6682 52.3337 19.9243 53.4616 19.1758Z" fill="#343057"/>
<path opacity="0.16" d="M57.3319 20.3348C57.3319 20.3348 57.1933 19.9476 56.894 19.8457C56.8227 19.8173 56.7461 19.8084 56.6709 19.8198C56.5957 19.8312 56.5243 19.8625 56.4631 19.911C56.4019 19.9595 56.3528 20.0236 56.3202 20.0976C56.2876 20.1715 56.2726 20.2531 56.2764 20.3348C56.2764 20.7368 56.3888 21.1037 56.6965 21.3608C57.0042 21.6178 57.6816 21.2124 57.3319 20.3348Z" fill="#E0E6FF"/>
<path opacity="0.18" d="M41.2737 47.6458C41.2737 47.8225 41.4743 47.9674 41.7211 47.9674C41.9679 47.9674 42.1643 47.8225 42.1643 47.6458C42.1643 47.4692 41.9637 47.3242 41.7169 47.3242C41.4701 47.3242 41.2737 47.468 41.2737 47.6458Z" fill="#CC562A"/>
<path opacity="0.18" d="M58.8597 45.235C58.6126 45.235 58.4123 45.091 58.4123 44.9134C58.4123 44.7358 58.6126 44.5918 58.8597 44.5918C59.1068 44.5918 59.3071 44.7358 59.3071 44.9134C59.3071 45.091 59.1068 45.235 58.8597 45.235Z" fill="#CC562A"/>
<path opacity="0.34" d="M45.6458 54.6619C45.6458 54.8397 45.8464 54.9835 46.0932 54.9835C46.34 54.9835 46.5396 54.8397 46.5396 54.6619C46.5396 54.4841 46.34 54.3403 46.0932 54.3403C45.8464 54.3403 45.6458 54.4841 45.6458 54.6619Z" fill="#CC562A"/>
<path opacity="0.28" d="M33.1776 46.7345C32.9305 46.7345 32.7302 46.5905 32.7302 46.4129C32.7302 46.2353 32.9305 46.0913 33.1776 46.0913C33.4247 46.0913 33.625 46.2353 33.625 46.4129C33.625 46.5905 33.4247 46.7345 33.1776 46.7345Z" fill="#CC562A"/>
<path opacity="0.38" d="M42.9637 41.2137C42.9637 41.3903 43.1632 41.5353 43.41 41.5353C43.6568 41.5353 43.8574 41.3903 43.8574 41.2137C43.8574 41.037 43.6579 40.8921 43.41 40.8921C43.1622 40.8921 42.9637 41.0404 42.9637 41.2137Z" fill="#CC562A"/>
<path opacity="0.38" d="M45.4966 32.5944C45.4966 32.7722 45.6972 32.916 45.944 32.916C46.1908 32.916 46.3904 32.7722 46.3904 32.5944C46.3904 32.4166 46.1908 32.2739 45.944 32.2739C45.6972 32.2739 45.4966 32.4177 45.4966 32.5944Z" fill="#CC562A"/>
<path opacity="0.38" d="M33.8222 31.6307C33.8222 31.8085 34.0228 31.9523 34.2696 31.9523C34.5164 31.9523 34.717 31.8085 34.717 31.6307C34.717 31.4529 34.5164 31.3091 34.2696 31.3091C34.0228 31.3091 33.8222 31.4529 33.8222 31.6307Z" fill="#CC562A"/>
<path opacity="0.21" d="M58.4122 25.4171C58.1651 25.4171 57.9648 25.2731 57.9648 25.0955C57.9648 24.9179 58.1651 24.7739 58.4122 24.7739C58.6593 24.7739 58.8596 24.9179 58.8596 25.0955C58.8596 25.2731 58.6593 25.4171 58.4122 25.4171Z" fill="#CC562A"/>
<path opacity="0.21" d="M34.3193 27.4525C34.3193 27.6291 34.5199 27.7729 34.7667 27.7729C35.0135 27.7729 35.2141 27.6291 35.2141 27.4525C35.2141 27.2758 35.0135 27.1309 34.7667 27.1309C34.5199 27.1309 34.3193 27.2747 34.3193 27.4525Z" fill="#CC562A"/>
<path opacity="0.41" d="M29.8481 26.7016C29.8481 26.8794 30.0487 27.0232 30.2955 27.0232C30.5423 27.0232 30.7429 26.8794 30.7429 26.7016C30.7429 26.5239 30.5423 26.3789 30.2966 26.3789C30.0508 26.3789 29.8481 26.525 29.8481 26.7016Z" fill="#CC562A"/>
<path opacity="0.21" d="M53.7171 24.265C53.7171 24.3691 53.8336 24.4529 53.9786 24.4529C54.1235 24.4529 54.2422 24.3691 54.2422 24.265C54.2422 24.1608 54.1256 24.0781 53.9817 24.0781C53.8378 24.0781 53.7171 24.1619 53.7171 24.265Z" fill="#CC562A"/>
<path opacity="0.21" d="M50.7008 21.64C50.7008 21.7441 50.8173 21.8279 50.9612 21.8279C51.1051 21.8279 51.2217 21.7441 51.2217 21.64C51.2217 21.5358 51.1051 21.4531 50.9612 21.4531C50.8173 21.4531 50.7008 21.5369 50.7008 21.64Z" fill="#CC562A"/>
<path opacity="0.21" d="M57.8535 23.3275C57.8535 23.4316 57.9701 23.5154 58.114 23.5154C58.2579 23.5154 58.3755 23.4316 58.3755 23.3275C58.3755 23.2233 58.2579 23.1406 58.114 23.1406C57.9701 23.1406 57.8535 23.2244 57.8535 23.3275Z" fill="#CC562A"/>
<path opacity="0.21" d="M55.9163 23.8099C55.9163 23.9141 56.0328 23.9979 56.1778 23.9979C56.3227 23.9979 56.4382 23.9141 56.4382 23.8099C56.4382 23.7057 56.3217 23.623 56.1778 23.623C56.0339 23.623 55.9163 23.7068 55.9163 23.8099Z" fill="#CC562A"/>
<path opacity="0.21" d="M49.8059 21.0254C49.8059 21.1284 49.9225 21.2122 50.0674 21.2122C50.2124 21.2122 50.3279 21.1284 50.3279 21.0254C50.3279 20.9223 50.2113 20.8374 50.0674 20.8374C49.9235 20.8374 49.8059 20.9212 49.8059 21.0254Z" fill="#CC562A"/>
<path opacity="0.38" d="M47.6332 35.005C47.3861 35.005 47.1858 34.861 47.1858 34.6834C47.1858 34.5058 47.3861 34.3618 47.6332 34.3618C47.8803 34.3618 48.0806 34.5058 48.0806 34.6834C48.0806 34.861 47.8803 35.005 47.6332 35.005Z" fill="#CC562A"/>
<path opacity="0.38" d="M31.7859 35.8621C31.7859 36.0388 31.9865 36.1826 32.2333 36.1826C32.4801 36.1826 32.6807 36.0388 32.6807 35.8621C32.6807 35.6855 32.4801 35.5405 32.2333 35.5405C31.9865 35.5405 31.7859 35.6843 31.7859 35.8621Z" fill="#CC562A"/>
<path opacity="0.38" d="M43.6094 54.931C43.6094 55.1076 43.809 55.2514 44.0558 55.2514C44.3026 55.2514 44.5032 55.1076 44.5032 54.931C44.5032 54.7543 44.3026 54.6094 44.0558 54.6094C43.809 54.6094 43.6094 54.7532 43.6094 54.931Z" fill="#CC562A"/>
<path opacity="0.16" d="M41.0754 49.7884C41.0754 49.965 41.276 50.11 41.5228 50.11C41.7696 50.11 41.9702 49.965 41.9702 49.7884C41.9702 49.6117 41.7696 49.4668 41.5228 49.4668C41.276 49.4668 41.0754 49.6106 41.0754 49.7884Z" fill="#CC562A"/>
<path opacity="0.38" d="M33.8729 39.7179C33.6258 39.7179 33.4255 39.5739 33.4255 39.3963C33.4255 39.2187 33.6258 39.0747 33.8729 39.0747C34.12 39.0747 34.3203 39.2187 34.3203 39.3963C34.3203 39.5739 34.12 39.7179 33.8729 39.7179Z" fill="#CC562A"/>
<path opacity="0.38" d="M34.2697 35.9679C34.2697 36.0574 34.3694 36.1287 34.4933 36.1287C34.6173 36.1287 34.717 36.0574 34.717 35.9679C34.717 35.8785 34.6173 35.8071 34.4933 35.8071C34.3694 35.8071 34.2697 35.8796 34.2697 35.9679Z" fill="#CC562A"/>
<path opacity="0.38" d="M42.6655 54.6087C42.5419 54.6087 42.4418 54.5367 42.4418 54.4479C42.4418 54.3591 42.5419 54.2871 42.6655 54.2871C42.789 54.2871 42.8892 54.3591 42.8892 54.4479C42.8892 54.5367 42.789 54.6087 42.6655 54.6087Z" fill="#CC562A"/>
<path opacity="0.38" d="M45.9681 34.2008C45.9681 34.2903 46.0732 34.3616 46.1918 34.3616C46.3105 34.3616 46.4155 34.2903 46.4155 34.2008C46.4155 34.1114 46.3158 34.04 46.1918 34.04C46.0679 34.04 45.9681 34.1125 45.9681 34.2008Z" fill="#CC562A"/>
<path opacity="0.38" d="M35.2636 40.3079C35.1401 40.3079 35.0399 40.2359 35.0399 40.1471C35.0399 40.0583 35.1401 39.9863 35.2636 39.9863C35.3871 39.9863 35.4873 40.0583 35.4873 40.1471C35.4873 40.2359 35.3871 40.3079 35.2636 40.3079Z" fill="#CC562A"/>
<path opacity="0.38" d="M36.2568 40.1473C36.1332 40.1473 36.0331 40.0753 36.0331 39.9865C36.0331 39.8977 36.1332 39.8257 36.2568 39.8257C36.3803 39.8257 36.4805 39.8977 36.4805 39.9865C36.4805 40.0753 36.3803 40.1473 36.2568 40.1473Z" fill="#CC562A"/>
<path opacity="0.18" d="M42.6655 48.8236C42.5419 48.8236 42.4418 48.7516 42.4418 48.6628C42.4418 48.5739 42.5419 48.502 42.6655 48.502C42.789 48.502 42.8892 48.5739 42.8892 48.6628C42.8892 48.7516 42.789 48.8236 42.6655 48.8236Z" fill="#CC562A"/>
<path opacity="0.18" d="M51.4579 49.8411C51.3344 49.8411 51.2342 49.7691 51.2342 49.6803C51.2342 49.5915 51.3344 49.5195 51.4579 49.5195C51.5815 49.5195 51.6816 49.5915 51.6816 49.6803C51.6816 49.7691 51.5815 49.8411 51.4579 49.8411Z" fill="#CC562A"/>
<path opacity="0.18" d="M57.0222 47.324C56.8986 47.324 56.7985 47.252 56.7985 47.1632C56.7985 47.0744 56.8986 47.0024 57.0222 47.0024C57.1457 47.0024 57.2458 47.0744 57.2458 47.1632C57.2458 47.252 57.1457 47.324 57.0222 47.324Z" fill="#CC562A"/>
<path opacity="0.18" d="M48.9245 55.0369C48.801 55.0369 48.7008 54.9649 48.7008 54.8761C48.7008 54.7873 48.801 54.7153 48.9245 54.7153C49.048 54.7153 49.1482 54.7873 49.1482 54.8761C49.1482 54.9649 49.048 55.0369 48.9245 55.0369Z" fill="#CC562A"/>
<path opacity="0.18" d="M46.1173 46.5744C46.1173 46.6627 46.2223 46.7352 46.341 46.7352C46.4597 46.7352 46.5647 46.6627 46.5647 46.5744C46.5647 46.486 46.4597 46.4136 46.341 46.4136C46.2223 46.4136 46.1173 46.4849 46.1173 46.5744Z" fill="#CC562A"/>
<path opacity="0.18" d="M56.7238 45.6639C56.6003 45.6639 56.5001 45.5919 56.5001 45.5031C56.5001 45.4143 56.6003 45.3423 56.7238 45.3423C56.8474 45.3423 56.9475 45.4143 56.9475 45.5031C56.9475 45.5919 56.8474 45.6639 56.7238 45.6639Z" fill="#CC562A"/>
<path opacity="0.38" d="M40.9262 40.6834C40.8027 40.6834 40.7025 40.6114 40.7025 40.5226C40.7025 40.4338 40.8027 40.3618 40.9262 40.3618C41.0497 40.3618 41.1499 40.4338 41.1499 40.5226C41.1499 40.6114 41.0497 40.6834 40.9262 40.6834Z" fill="#CC562A"/>
<path opacity="0.38" d="M41.3984 54.5537C41.3984 54.6432 41.4982 54.7145 41.6221 54.7145C41.746 54.7145 41.8447 54.6432 41.8447 54.5537C41.8447 54.4643 41.7397 54.394 41.6221 54.394C41.5045 54.394 41.3984 54.462 41.3984 54.5537Z" fill="#CC562A"/>
<path opacity="0.22" d="M57.6918 45.7174C57.6918 45.8058 57.7968 45.8782 57.9155 45.8782C58.0341 45.8782 58.1392 45.8058 58.1392 45.7174C58.1392 45.6291 58.0341 45.5566 57.9155 45.5566C57.7968 45.5566 57.6918 45.6302 57.6918 45.7174Z" fill="#CC562A"/>
<path opacity="0.22" d="M58.8097 49.8939C58.6862 49.8939 58.5861 49.8219 58.5861 49.7331C58.5861 49.6443 58.6862 49.5723 58.8097 49.5723C58.9333 49.5723 59.0334 49.6443 59.0334 49.7331C59.0334 49.8219 58.9333 49.8939 58.8097 49.8939Z" fill="#CC562A"/>
<path opacity="0.18" d="M43.5593 47.5926C43.4357 47.5926 43.3356 47.5206 43.3356 47.4318C43.3356 47.343 43.4357 47.271 43.5593 47.271C43.6828 47.271 43.783 47.343 43.783 47.4318C43.783 47.5206 43.6828 47.5926 43.5593 47.5926Z" fill="#CC562A"/>
<path opacity="0.18" d="M39.0136 49.4129C38.8901 49.4129 38.7899 49.3409 38.7899 49.2521C38.7899 49.1633 38.8901 49.0913 39.0136 49.0913C39.1372 49.0913 39.2373 49.1633 39.2373 49.2521C39.2373 49.3409 39.1372 49.4129 39.0136 49.4129Z" fill="#CC562A"/>
<path opacity="0.38" d="M41.87 32.7542C41.7465 32.7542 41.6463 32.6822 41.6463 32.5934C41.6463 32.5046 41.7465 32.4326 41.87 32.4326C41.9936 32.4326 42.0938 32.5046 42.0938 32.5934C42.0938 32.6822 41.9936 32.7542 41.87 32.7542Z" fill="#CC562A"/>
<path opacity="0.38" d="M32.187 31.0417C32.187 31.13 32.2867 31.2024 32.4096 31.2024C32.5325 31.2024 32.6333 31.13 32.6333 31.0417C32.6333 30.9533 32.5283 30.8809 32.4096 30.8809C32.2909 30.8809 32.187 30.9522 32.187 31.0417Z" fill="#CC562A"/>
<path opacity="0.38" d="M35.3871 31.6307C35.2636 31.6307 35.1634 31.5587 35.1634 31.4699C35.1634 31.3811 35.2636 31.3091 35.3871 31.3091C35.5107 31.3091 35.6108 31.3811 35.6108 31.4699C35.6108 31.5587 35.5107 31.6307 35.3871 31.6307Z" fill="#CC562A"/>
<path opacity="0.21" d="M57.2206 24.6668C57.0971 24.6668 56.9969 24.5948 56.9969 24.506C56.9969 24.4172 57.0971 24.3452 57.2206 24.3452C57.3442 24.3452 57.4443 24.4172 57.4443 24.506C57.4443 24.5948 57.3442 24.6668 57.2206 24.6668Z" fill="#CC562A"/>
<path opacity="0.21" d="M51.2836 20.9709C51.2836 21.0603 51.3886 21.1317 51.5073 21.1317C51.6259 21.1317 51.731 21.0603 51.731 20.9709C51.731 20.8814 51.6259 20.8101 51.5073 20.8101C51.3886 20.8101 51.2836 20.8825 51.2836 20.9709Z" fill="#CC562A"/>
<path opacity="0.21" d="M33.475 26.97C33.3515 26.97 33.2513 26.898 33.2513 26.8092C33.2513 26.7204 33.3515 26.6484 33.475 26.6484C33.5986 26.6484 33.6987 26.7204 33.6987 26.8092C33.6987 26.898 33.5986 26.97 33.475 26.97Z" fill="#CC562A"/>
<path opacity="0.38" d="M30.6191 34.3616C30.4955 34.3616 30.3954 34.2896 30.3954 34.2008C30.3954 34.112 30.4955 34.04 30.6191 34.04C30.7426 34.04 30.8428 34.112 30.8428 34.2008C30.8428 34.2896 30.7426 34.3616 30.6191 34.3616Z" fill="#CC562A"/>
<path opacity="0.38" d="M40.3551 33.3449C40.3551 33.4332 40.4601 33.5045 40.5788 33.5045C40.6975 33.5045 40.8025 33.4332 40.8025 33.3449C40.8025 33.2566 40.7027 33.1841 40.5788 33.1841C40.4549 33.1841 40.3551 33.2554 40.3551 33.3449Z" fill="#CC562A"/>
<path opacity="0.38" d="M48.2043 33.6653C48.0807 33.6653 47.9806 33.5934 47.9806 33.5045C47.9806 33.4157 48.0807 33.3438 48.2043 33.3438C48.3278 33.3438 48.428 33.4157 48.428 33.5045C48.428 33.5934 48.3278 33.6653 48.2043 33.6653Z" fill="#CC562A"/>
<path opacity="0.21" d="M55.2577 24.9346C55.2577 25.024 55.3627 25.0954 55.4814 25.0954C55.6001 25.0954 55.7051 25.024 55.7051 24.9346C55.7051 24.8451 55.6001 24.7749 55.4814 24.7749C55.3627 24.7749 55.2577 24.8462 55.2577 24.9346Z" fill="#CC562A"/>
</g>
<defs>
<linearGradient id="paint0_linear_430_643" x1="22.0264" y1="50.4924" x2="66.3252" y2="53.6743" gradientUnits="userSpaceOnUse">
<stop stop-color="#D72F5D"/>
<stop offset="0.33" stop-color="#D83360"/>
<stop offset="0.64" stop-color="#DA3E68"/>
<stop offset="0.93" stop-color="#DD5077"/>
<stop offset="1" stop-color="#DE567B"/>
</linearGradient>
<linearGradient id="paint1_linear_430_643" x1="-600.282" y1="4879.94" x2="-17768.4" y2="4879.94" gradientUnits="userSpaceOnUse">
<stop stop-color="#D72F5D"/>
<stop offset="0.33" stop-color="#D83360"/>
<stop offset="0.64" stop-color="#DA3E68"/>
<stop offset="0.93" stop-color="#DD5077"/>
<stop offset="1" stop-color="#DE567B"/>
</linearGradient>
<linearGradient id="paint2_linear_430_643" x1="60.9257" y1="52.2177" x2="27.6533" y2="52.2177" gradientUnits="userSpaceOnUse">
<stop stop-color="#F0A82C"/>
<stop offset="0.31" stop-color="#EFA42C"/>
<stop offset="0.59" stop-color="#EB992C"/>
<stop offset="0.86" stop-color="#E6872C"/>
<stop offset="1" stop-color="#E27A2C"/>
</linearGradient>
<linearGradient id="paint3_linear_430_643" x1="-2100.73" y1="2054.37" x2="-8332.23" y2="5972.13" gradientUnits="userSpaceOnUse">
<stop stop-color="#F0A82C"/>
<stop offset="0.31" stop-color="#EFA42C"/>
<stop offset="0.59" stop-color="#EB992C"/>
<stop offset="0.86" stop-color="#E6872C"/>
<stop offset="1" stop-color="#E27A2C"/>
</linearGradient>
<radialGradient id="paint4_radial_430_643" cx="0" cy="0" r="1" gradientUnits="userSpaceOnUse" gradientTransform="translate(-7396.2 1560.46) rotate(180) scale(3579.4 966.762)">
<stop stop-color="#F0A82C"/>
<stop offset="0.31" stop-color="#EFA42C"/>
<stop offset="0.59" stop-color="#EB992C"/>
<stop offset="0.86" stop-color="#E6872C"/>
<stop offset="1" stop-color="#E27A2C"/>
</radialGradient>
<radialGradient id="paint5_radial_430_643" cx="0" cy="0" r="1" gradientUnits="userSpaceOnUse" gradientTransform="translate(43.4812 33.9405) rotate(180) scale(12.106 13.053)">
<stop stop-color="#E27A2C"/>
<stop offset="0.28" stop-color="#E4802C"/>
<stop offset="0.66" stop-color="#E9932C"/>
<stop offset="1" stop-color="#F0A82C"/>
</radialGradient>
<radialGradient id="paint6_radial_430_643" cx="0" cy="0" r="1" gradientUnits="userSpaceOnUse" gradientTransform="translate(-10803.7 102.137) rotate(180) scale(6548.46 1511.45)">
<stop stop-color="#F0A82C"/>
<stop offset="0.31" stop-color="#EFA42C"/>
<stop offset="0.59" stop-color="#EB992C"/>
<stop offset="0.86" stop-color="#E6872C"/>
<stop offset="1" stop-color="#E27A2C"/>
</radialGradient>
<linearGradient id="paint7_linear_430_643" x1="-2115.66" y1="531.767" x2="-12535.6" y2="531.767" gradientUnits="userSpaceOnUse">
<stop stop-color="#F0A82C"/>
<stop offset="0.31" stop-color="#EFA42C"/>
<stop offset="0.59" stop-color="#EB992C"/>
<stop offset="0.86" stop-color="#E6872C"/>
<stop offset="1" stop-color="#E27A2C"/>
</linearGradient>
<clipPath id="clip0_430_643">
<rect width="46" height="45" fill="white" transform="matrix(-1 0 0 1 68 18)"/>
</clipPath>
</defs>
</svg>
